<?xml version="1.0" encoding="UTF-8" standalone="no"?>
<svg
   xmlns:dc="http://purl.org/dc/elements/1.1/"
   xmlns:cc="http://creativecommons.org/ns#"
   xmlns:rdf="http://www.w3.org/1999/02/22-rdf-syntax-ns#"
   xmlns:svg="http://www.w3.org/2000/svg"
   xmlns="http://www.w3.org/2000/svg"
   xmlns:sodipodi="http://sodipodi.sourceforge.net/DTD/sodipodi-0.dtd"
   xmlns:inkscape="http://www.inkscape.org/namespaces/inkscape"
   width="720"
   height="720"
   viewBox="0 0 190.5 190.50001"
   version="1.1"
   id="svg8"
   inkscape:version="1.0.1 (3bc2e813f5, 2020-09-07)"
   sodipodi:docname="photo.svg"
   inkscape:export-filename="H:\vcard-aktuell\photo.png"
   inkscape:export-xdpi="96"
   inkscape:export-ydpi="96">
  <defs
     id="defs2">
    <clipPath
       clipPathUnits="userSpaceOnUse"
       id="clipPath901">
      <path
         d="M 0,155.91 H 595.28 V 0 H 0 Z"
         id="path899"
         inkscape:connector-curvature="0" />
    </clipPath>
  </defs>
  <sodipodi:namedview
     id="base"
     pagecolor="#ffffff"
     bordercolor="#666666"
     borderopacity="1.0"
     inkscape:pageopacity="0.0"
     inkscape:pageshadow="2"
     inkscape:zoom="0.7"
     inkscape:cx="140.36405"
     inkscape:cy="260.47448"
     inkscape:document-units="px"
     inkscape:current-layer="layer1"
     inkscape:document-rotation="0"
     showgrid="false"
     units="px"
     showguides="true"
     inkscape:guide-bbox="true"
     inkscape:window-width="1920"
     inkscape:window-height="1017"
     inkscape:window-x="-8"
     inkscape:window-y="-8"
     inkscape:window-maximized="1" />
  <metadata
     id="metadata5">
    <rdf:RDF>
      <cc:Work
         rdf:about="">
        <dc:format>image/svg+xml</dc:format>
        <dc:type
           rdf:resource="http://purl.org/dc/dcmitype/StillImage" />
        <dc:title />
      </cc:Work>
    </rdf:RDF>
  </metadata>
  <g
     inkscape:label="Ebene 1"
     inkscape:groupmode="layer"
     id="layer1">
    <rect
       style="fill:#1c4491;fill-opacity:1;stroke-width:1.04749;stroke-linecap:round"
       id="rect833"
       width="190.5"
       height="190.5"
       x="2.4999999e-06"
       y="2.4999999e-06" />
    <g
       id="g930"
       transform="matrix(0.94506648,0,0,0.94506648,-1.3739517,11.909911)">
      <path
         d="m 176.70039,132.36214 c -0.18521,0 -0.56515,0.19897 -0.56515,0.72073 0,0.53481 0.31856,0.72072 0.56515,0.72072 0.33831,0 0.57468,-0.32314 0.57468,-0.72072 0,-0.24801 -0.13371,-0.72073 -0.57468,-0.72073 m -6.90104,-6.61035 c 0,0.11218 0.11289,0.16192 0.23601,0.21131 0.45226,0.16122 0.66781,0.47202 0.87312,1.09361 0.15382,0.44733 1.12925,3.45405 1.4785,4.5847 0.29774,0.90735 0.47201,1.66547 0.5341,2.02566 0.0208,0.13652 0.10266,0.23636 0.16404,0.23636 0.10266,0 0.17498,-0.14958 0.21555,-0.28575 0.23636,-0.94474 0.37006,-1.25554 0.96555,-3.00708 0.62689,-1.87678 0.88336,-2.41089 1.35502,-3.65302 0.21661,-0.54715 0.44168,-0.8449 0.89394,-0.98213 0.14393,-0.037 0.26705,-0.11148 0.26705,-0.21131 0,-0.11183 -0.15416,-0.16122 -0.29809,-0.16122 -0.2159,0 -0.62654,0.0494 -0.92393,0.0494 -0.3496,0 -0.58596,-0.0247 -0.82162,-0.0247 -0.16439,0 -0.29739,0.0621 -0.29739,0.14958 0,0.0744 0.0819,0.17357 0.22507,0.22331 0.44168,0.16122 0.71932,0.3108 0.47273,1.00647 -0.46214,1.34232 -1.58115,4.53531 -1.66406,4.79637 -0.0303,0.0868 -0.0811,0.0123 -0.10266,-0.0123 -0.369,-1.06856 -1.47778,-4.54766 -1.65276,-5.19394 -0.0413,-0.19897 -0.0614,-0.47273 0.48295,-0.59655 0.19509,-0.0374 0.24589,-0.13653 0.24589,-0.22331 0,-0.0875 -0.11289,-0.14958 -0.24589,-0.14958 -0.23636,0 -0.65722,0.0247 -1.01706,0.0247 -0.50306,0 -0.87277,-0.0617 -1.07808,-0.0617 -0.15382,0 -0.30798,0.0617 -0.30798,0.16122 m -0.16404,6.61035 c -0.18556,0 -0.56515,0.19897 -0.56515,0.72073 0,0.53481 0.3182,0.72072 0.56515,0.72072 0.33902,0 0.57467,-0.32314 0.57467,-0.72072 0,-0.24801 -0.13299,-0.72073 -0.57467,-0.72073 m -2.67018,-3.40431 c 0.36936,0 0.67734,0.39758 0.67734,0.74542 0,0.24871 -0.10266,0.3108 -0.34855,0.3108 -0.51329,0.0123 -1.05762,0.0123 -1.32503,0 -0.0208,0 -0.0621,-0.0744 -0.0406,-0.13652 0.1845,-0.57186 0.57468,-0.9197 1.03681,-0.9197 m 0.10266,-0.32314 c -0.17498,0 -0.51399,0.0744 -0.78069,0.22366 -0.80046,0.44732 -1.23261,1.44075 -1.23261,2.43523 0,1.45379 0.74013,2.47262 1.84891,2.47262 0.58561,0 1.12995,-0.2981 1.48872,-0.93134 0.031,-0.0621 0.0723,-0.19932 0.0723,-0.29845 0,-0.0628 -0.0205,-0.14887 -0.0818,-0.14887 -0.0413,0 -0.0931,0.0744 -0.13371,0.14887 -0.17498,0.3108 -0.48295,0.44732 -0.93486,0.44732 -0.49283,0 -0.92428,-0.31079 -1.15005,-0.68368 -0.22613,-0.36019 -0.39018,-0.93133 -0.39018,-1.4164 0,-0.12418 0.0208,-0.33585 0.0519,-0.43498 0.01,-0.037 0.0508,-0.0991 0.0811,-0.0991 0.47272,0.0123 2.2292,0.0123 2.34209,0.0123 0.11289,0 0.19509,-0.13723 0.19509,-0.21167 0,-0.43462 -0.1337,-0.78246 -0.35983,-1.04387 -0.25612,-0.30974 -0.65652,-0.47166 -1.01636,-0.47166 m -5.86352,0.32314 c 0.37007,0 0.67734,0.39758 0.67734,0.74542 0,0.24871 -0.10196,0.3108 -0.34855,0.3108 -0.51329,0.0123 -1.05763,0.0123 -1.32503,0 -0.0208,0 -0.0621,-0.0744 -0.0406,-0.13652 0.1845,-0.57186 0.57467,-0.9197 1.03681,-0.9197 m 0.10266,-0.32314 c -0.17498,0 -0.514,0.0744 -0.7807,0.22366 -0.80045,0.44732 -1.2326,1.44075 -1.2326,2.43523 0,1.45379 0.74013,2.47262 1.84855,2.47262 0.58597,0 1.1303,-0.2981 1.48908,-0.93134 0.031,-0.0621 0.0723,-0.19932 0.0723,-0.29845 0,-0.0628 -0.0205,-0.14887 -0.0818,-0.14887 -0.0413,0 -0.0924,0.0744 -0.1337,0.14887 -0.17427,0.3108 -0.48295,0.44732 -0.93521,0.44732 -0.49248,0 -0.92393,-0.31079 -1.14971,-0.68368 -0.22542,-0.36019 -0.39017,-0.93133 -0.39017,-1.4164 0,-0.12418 0.0208,-0.33585 0.0519,-0.43498 0.0102,-0.037 0.0508,-0.0991 0.0811,-0.0991 0.47272,0.0123 2.2292,0.0123 2.34209,0.0123 0.11289,0 0.19509,-0.13723 0.19509,-0.21167 0,-0.43462 -0.13371,-0.78246 -0.35913,-1.04387 -0.25682,-0.30974 -0.65723,-0.47166 -1.01706,-0.47166 m -4.48733,-0.0127 c -0.43145,0 -0.87313,0.26141 -1.29399,0.72072 -0.0106,0.0127 -0.072,0 -0.072,-0.0744 0,-0.36019 0.0409,-3.4544 0.14358,-4.34905 0,-0.037 -0.0201,-0.13617 -0.0614,-0.13617 -0.0614,0 -0.15452,0.0617 -0.19509,0.0868 -0.24659,0.19896 -0.70908,0.32314 -1.02658,0.43462 0,0 -0.031,0.0123 -0.031,0.0621 0,0.0998 0.0614,0.22401 0.10265,0.2487 0.28752,0.22402 0.30798,0.24871 0.33902,0.57186 0.0406,0.35983 0.0311,0.8449 0.0311,1.26718 0,3.18064 -0.0723,4.62174 -0.10337,5.1442 -0.0303,0.45967 -0.13299,0.59584 -0.4004,0.70838 -0.21555,0.0744 -0.29774,0.14887 -0.29774,0.21061 0,0.12488 0.14428,0.16192 0.23636,0.16192 0.17427,0 0.54363,-0.037 0.77999,-0.037 0.24694,0 0.76024,0.0247 0.84279,0.0247 0.14322,0 0.25647,-0.037 0.25647,-0.14958 0,-0.0617 -0.0822,-0.14852 -0.22614,-0.19826 -0.23565,-0.0744 -0.37958,-0.14888 -0.4004,-0.55951 -0.0102,-0.44732 -0.0102,-2.06234 0.0208,-2.58445 0.0102,-0.38523 0.14393,-0.58385 0.16404,-0.60854 0.0413,-0.0501 0.38029,-0.28575 0.82197,-0.28575 0.40005,0 0.66675,0.17357 0.83079,0.40993 0.1136,0.16122 0.16475,0.5595 0.16475,1.24283 0,0.19862 0.0208,1.56563 0,1.80129 -0.0406,0.47201 -0.0716,0.50976 -0.32879,0.60889 -0.12312,0.0374 -0.21555,0.0991 -0.21555,0.17357 0,0.0875 0.0515,0.14958 0.20602,0.14958 0.29775,0 0.50307,-0.0247 0.73872,-0.0247 0.34925,0 0.46214,0.037 0.81139,0.037 0.19509,0 0.27728,-0.0494 0.27728,-0.16192 0,-0.0744 -0.0822,-0.14852 -0.28751,-0.19826 -0.26741,-0.0744 -0.4004,-0.17428 -0.4004,-0.48437 -0.0102,-0.74612 -0.0307,-1.51588 -0.0413,-2.2987 0,-0.53446 -0.0924,-1.00647 -0.29774,-1.34196 -0.21555,-0.36054 -0.57503,-0.57221 -1.08832,-0.57221 m -4.17971,0.0374 c -0.27693,0 -0.94474,0.17428 -1.34514,0.52141 -0.59585,0.48507 -0.99625,1.24319 -0.99625,2.15053 0,0.52176 0.14393,1.10596 0.31821,1.4538 0.32879,0.58385 0.87312,0.99378 1.52012,0.99378 0.5341,0 1.11971,-0.2854 1.47849,-0.77047 0.0822,-0.0991 0.1337,-0.22331 0.1337,-0.36019 0,-0.0621 -0.0818,-0.0995 -0.19473,0 -0.26741,0.22296 -0.53411,0.37254 -0.9144,0.37254 -0.53411,0 -1.03717,-0.3108 -1.29399,-0.83221 -0.0406,-0.0744 -0.2667,-0.52246 -0.2667,-1.24319 0,-0.5461 0.15381,-1.05551 0.43145,-1.42875 0.16404,-0.24835 0.47201,-0.42262 0.63641,-0.42262 0.3496,0 0.52387,0.18697 0.86289,0.48507 0.16404,0.13652 0.33902,0.23636 0.40005,0.23636 0.0416,0 0.33902,-0.29881 0.33902,-0.49742 0,-0.0744 -0.0515,-0.28575 -0.15416,-0.37289 -0.19509,-0.18591 -0.647,-0.28575 -0.95497,-0.28575 m -4.76462,4.46053 c -0.21555,0 -0.64699,-0.19826 -0.64699,-0.74472 0,-0.29915 0.10265,-0.38594 0.20531,-0.47272 0.27693,-0.16122 0.77047,-0.37253 1.05763,-0.37253 0.0413,0 0.0822,0.0617 0.0822,0.0991 0,0.24871 0,0.67098 -0.0201,0.96943 0,0.0247 -0.0621,0.26106 -0.12347,0.3108 -0.19474,0.12382 -0.40076,0.21061 -0.55457,0.21061 m 0.30798,-4.49792 c -0.19509,0 -0.65723,0.21167 -0.95497,0.47202 -0.48225,0.38594 -0.77047,0.73307 -0.77047,1.09361 0,0.0628 0.0614,0.16192 0.12347,0.16192 0.0519,0 0.56515,-0.31079 0.66781,-0.40993 0.0198,-0.0247 0.061,-0.0998 0.061,-0.13652 -0.0198,-0.24871 0.0106,-0.47272 0.0727,-0.50976 0.0716,-0.0621 0.20532,-0.13653 0.42087,-0.13653 0.50306,0 0.80045,0.52176 0.80045,0.8322 0,0.14958 -0.0102,0.907 -0.0205,1.01918 0,0.0744 -0.0614,0.13652 -0.29775,0.22331 -0.22613,0.0875 -1.04739,0.36018 -1.20156,0.43462 -0.15381,0.0868 -0.30797,0.14958 -0.41063,0.3108 -0.11324,0.17427 -0.19509,0.41063 -0.19509,0.63394 0,0.62159 0.34925,1.15535 0.70838,1.15535 0.0515,0 0.29845,-0.0247 0.41134,-0.0741 0.10266,-0.0374 0.54434,-0.24906 0.92392,-0.5722 0.0208,-0.0116 0.0614,0.0381 0.0614,0.0504 0.12312,0.45967 0.42086,0.62089 0.65722,0.62089 0.46249,0 0.92393,-0.5341 0.92393,-0.77046 0,-0.0123 0,-0.0868 -0.0303,-0.12383 -0.0205,-0.0374 -0.031,-0.0621 -0.0617,-0.0374 -0.11324,0.0991 -0.3496,0.18591 -0.39017,0.18591 -0.0818,0 -0.41063,-0.0494 -0.41063,-0.62124 0,-0.13653 0.0406,-1.7018 0.0406,-2.18687 0,-0.52176 -0.0508,-0.76976 -0.20532,-1.03082 -0.15346,-0.27375 -0.41063,-0.58455 -0.92392,-0.58455 m -4.90855,0.64629 c 0,0.0497 0.10265,0.0995 0.34925,0.33584 0.11324,0.0868 0.11324,0.24801 0.11324,0.37254 v 2.37313 c -0.0106,0.74542 -0.0416,0.87031 -0.44168,1.03153 -0.0829,0.037 -0.20532,0.0868 -0.20532,0.16121 0,0.0998 0.10266,0.14958 0.21555,0.14958 0.24589,0 0.36936,-0.0497 0.67733,-0.0497 0.59584,0 0.95568,0.0621 1.21179,0.0621 0.15452,0 0.24695,-0.0497 0.24695,-0.11254 0,-0.0494 -0.0208,-0.13617 -0.18556,-0.19826 -0.15346,-0.0497 -0.33902,-0.11183 -0.47202,-0.14887 -0.1845,-0.0377 -0.24659,-0.2734 -0.2674,-0.63394 -0.0102,-0.18662 -0.061,-2.43558 -0.061,-2.68358 0,-0.0621 0.031,-0.17427 0.10265,-0.27376 0.10266,-0.13688 0.27693,-0.17356 0.45191,-0.17356 0.20532,0 0.4512,0.14887 0.56445,0.27305 0.0307,0.0247 0.12312,0.0501 0.14393,0.037 0.0614,-0.037 0.30797,-0.37289 0.42086,-0.57115 0.031,-0.0621 0.0621,-0.14958 0.0621,-0.17427 0,-0.11183 -0.0931,-0.42263 -0.51329,-0.42263 -0.31926,0 -0.77117,0.3108 -1.17157,0.77047 -0.0198,0.0123 -0.0716,0 -0.0716,-0.0497 0,-0.23636 0.0208,-0.45931 0.0208,-0.68333 0,-0.0374 -0.0519,-0.14887 -0.0924,-0.14887 -0.0311,0 -0.0819,0.0497 -0.20602,0.14887 -0.10266,0.0744 -0.42016,0.26106 -0.75918,0.39758 -0.11289,0.0494 -0.1337,0.17428 -0.1337,0.21132 m -2.81411,0.0127 c 0.23636,0 0.65757,0.17357 0.92498,0.50906 0.42086,0.5595 0.42086,1.24283 0.42086,1.51588 0,0.36019 -0.18485,1.30493 -0.69885,1.82669 -0.14323,0.14922 -0.35877,0.21131 -0.47166,0.21131 -0.25718,0 -0.74966,-0.21131 -1.02764,-0.68333 -0.0716,-0.11183 -0.11219,-0.32314 -0.133,-0.54645 -0.0413,-0.50977 -0.0307,-1.86373 0.0208,-2.23661 0.0303,-0.22402 0.0819,-0.32315 0.133,-0.3736 0.11289,-0.11147 0.40111,-0.22295 0.8315,-0.22295 m 0.53481,-0.63394 c -0.28787,0 -0.59584,0.0621 -0.75989,0.14957 -0.14393,0.0744 -0.42192,0.24801 -0.6678,0.44697 -0.0413,0.0374 -0.0819,-0.0123 -0.0819,-0.0628 0.0102,-0.19826 0.0102,-0.43392 0.0303,-0.63324 0,-0.0494 -0.0822,-0.14922 -0.11324,-0.14922 -0.0198,0 -0.10266,0.0501 -0.20532,0.11218 -0.17427,0.12418 -0.62618,0.38524 -0.78069,0.43462 -0.0406,0.0127 -0.14323,0.16122 -0.14323,0.22402 0,0.0621 0.12347,0.17356 0.37959,0.39758 0.031,0.0247 0.0829,0.11183 0.0829,0.63394 0.0102,0.73307 0,1.66476 0,2.50931 0,1.26788 -0.0106,2.28635 -0.031,2.69699 -0.0413,0.89429 -0.0924,1.00576 -0.63676,1.143 -0.16475,0.0374 -0.23636,0.13652 -0.23636,0.18591 0,0.11254 0.15452,0.16122 0.30797,0.16122 0.30798,0 0.41064,-0.0363 0.65758,-0.0363 0.40005,0 0.99625,0.0621 1.22202,0.0621 0.133,0 0.2667,-0.0621 0.2667,-0.16192 0,-0.0868 -0.0818,-0.14888 -0.28716,-0.22331 -0.39087,-0.14958 -0.46249,-0.29845 -0.49353,-0.6216 -0.0303,-0.34784 -0.0406,-0.85689 -0.0406,-2.06269 0,-0.0621 0.0406,-0.16122 0.0716,-0.16122 0.1337,0.0247 0.33902,0.0494 0.57468,0.0494 0.46249,0 1.06856,-0.0991 1.63371,-0.63323 0.65652,-0.59655 0.87242,-1.5166 0.87242,-2.13784 0,-0.68298 -0.23566,-1.29187 -0.48225,-1.62772 -0.30832,-0.40992 -0.77046,-0.69567 -1.13982,-0.69567 m -4.27249,-0.025 c -0.34961,0 -0.62654,0.11183 -0.82127,0.26141 -0.39088,0.28575 -0.56515,0.69568 -0.56515,1.1183 0,0.5842 0.32879,1.01883 0.63676,1.25519 0.31891,0.248 0.3803,0.31009 0.62618,0.52176 0.31821,0.23565 0.4625,0.49671 0.4625,0.8322 0,0.23636 -0.0822,0.5341 -0.23637,0.68368 -0.11324,0.0991 -0.27693,0.18592 -0.41063,0.18592 -0.36936,0 -0.64699,-0.24801 -0.93451,-0.88195 -0.0621,-0.13652 -0.1337,-0.2861 -0.21554,-0.2861 -0.0614,0 -0.0822,0.12488 -0.0822,0.26141 0,0.36018 0.12277,0.88194 0.15381,0.94368 0.17427,0.17462 0.68827,0.27375 0.99624,0.27375 0.31856,0 0.67734,-0.13652 0.8629,-0.28539 0.25682,-0.22402 0.59513,-0.64629 0.59513,-1.21815 0,-0.5588 -0.22613,-0.98178 -0.80045,-1.3917 -0.68862,-0.45967 -1.01706,-0.78282 -1.01706,-1.20509 0,-0.26141 0.19474,-0.77047 0.61666,-0.77047 0.33831,0 0.59514,0.24871 0.82127,0.83256 0.0508,0.13687 0.11288,0.21131 0.15345,0.21131 0.0829,0 0.12348,-0.11218 0.12348,-0.22401 0,-0.0868 -0.031,-0.50906 -0.031,-0.73308 0,-0.0744 -0.0614,-0.16122 -0.0818,-0.17356 -0.0208,-0.0123 -0.2159,-0.11219 -0.32809,-0.13723 -0.11288,-0.037 -0.32949,-0.0744 -0.52422,-0.0744 m -4.47746,0.41028 c 0.20532,0 0.5962,0.13688 0.88336,0.48436 0.12347,0.14923 0.2159,0.37324 0.22613,0.47237 0.031,0.58385 0.0413,1.26789 0.031,2.06305 -0.0106,0.39758 -0.14393,0.79516 -0.16475,0.81915 -0.1845,0.16192 -0.42086,0.29915 -0.74965,0.29915 -0.88265,0 -1.45803,-1.1437 -1.45803,-2.13748 0,-0.69567 0.23636,-1.32962 0.43145,-1.56527 0.1845,-0.22402 0.47201,-0.43533 0.80045,-0.43533 m 0.3803,-0.41028 c -0.27764,0 -0.88301,0.12488 -1.35573,0.47202 -0.50306,0.36054 -1.08797,1.06891 -1.08797,2.28705 0,0.62089 0.16405,1.25448 0.49248,1.70181 0.31856,0.41063 0.79022,0.68333 1.28376,0.68333 0.33902,0 0.86254,-0.11148 1.33526,-0.62125 0.0201,0 0.0614,0.0254 0.0614,0.0752 0,0.17356 -0.0208,0.39758 -0.0208,0.50905 0,0.0621 0.0716,0.16193 0.11324,0.16193 0.0515,0 0.13335,-0.0254 0.36901,-0.12488 0.19509,-0.0868 0.7299,-0.21061 0.92498,-0.24871 0.0515,-0.0116 0.17428,-0.22296 0.17428,-0.31045 0,-0.0127 -0.0201,-0.0744 -0.0614,-0.0744 -0.10266,0.0123 -0.44168,0.0998 -0.55456,0.0998 -0.0614,0 -0.14429,-0.0497 -0.15382,-0.51011 -0.0102,-0.23531 -0.031,-0.32315 -0.031,-2.83246 0,-3.80259 0.0406,-4.24991 0.0924,-4.90855 0.0102,-0.11147 -0.0519,-0.19826 -0.0822,-0.19826 -0.0413,0 -0.0723,0.0123 -0.13335,0.037 -0.2674,0.12418 -0.81104,0.3108 -1.0474,0.34784 -0.0621,0.0127 -0.17497,0.16122 -0.17497,0.21096 0,0.0247 0.0102,0.0498 0.10265,0.11148 0.47273,0.29916 0.47273,0.44803 0.48296,0.51012 0.031,0.29845 0.0614,2.19921 0.0102,2.53471 -0.0102,0.0621 -0.0413,0.14957 -0.0819,0.13652 -0.12417,-0.0247 -0.28822,-0.0497 -0.65757,-0.0497 m -9.90989,0.65899 c 0,0.0617 0.0723,0.12382 0.35949,0.44697 0.0924,0.11183 0.0716,0.27375 0.0716,0.33549 0,0.85796 -0.01,2.11279 -0.0303,2.47297 -0.0413,0.53411 -0.10266,0.72073 -0.43109,0.81986 -0.18557,0.0497 -0.2466,0.13723 -0.2466,0.18626 0,0.0875 0.10266,0.13688 0.25683,0.13688 0.22613,0 0.43144,-0.037 0.76976,-0.037 0.39052,0 0.77011,0.0247 0.81139,0.0247 0.13299,0 0.27728,-0.037 0.27728,-0.12454 0,-0.0995 -0.0822,-0.14887 -0.27728,-0.2233 -0.32844,-0.12489 -0.36971,-0.32315 -0.36971,-0.55951 0,-0.94403 0,-2.55905 0.0205,-2.86985 0.0106,-0.14957 0.0413,-0.24871 0.11324,-0.32314 0.24659,-0.22402 0.48295,-0.34784 0.82126,-0.34784 0.36972,0 0.63642,0.16122 0.77012,0.37253 0.0716,0.11183 0.1337,0.27376 0.1337,0.63324 v 2.44828 c 0,0.44697 -0.0413,0.57185 -0.38982,0.67098 -0.16475,0.0497 -0.20531,0.13653 -0.20531,0.17357 0,0.0504 0.0303,0.14958 0.2667,0.14958 0.21554,0 0.51329,-0.0247 0.72883,-0.0247 0.23637,0 0.54434,0.0247 0.77047,0.0247 0.16369,0 0.24659,-0.0621 0.24659,-0.14958 0,-0.0617 -0.10266,-0.13617 -0.2159,-0.17357 -0.34925,-0.0991 -0.40075,-0.22401 -0.43109,-0.62159 -0.0208,-0.2727 0,-2.60915 0,-2.69593 0,-0.0868 0.0716,-0.32315 0.10266,-0.36054 0.14393,-0.14923 0.32843,-0.34784 0.79092,-0.34784 0.43075,0 0.65652,0.19861 0.78,0.44732 0.11288,0.21132 0.16474,0.38488 0.16474,0.82056 0,0.40993 0.0198,1.75155 0.0198,2.04964 0,0.43498 -0.0413,0.58456 -0.36936,0.70838 -0.11289,0.0374 -0.22578,0.0868 -0.22578,0.16193 0,0.0861 0.0614,0.16122 0.25612,0.16122 0.23636,0 0.39088,-0.0247 0.69885,-0.0247 0.25612,0 0.53411,0.037 0.73942,0.037 0.19474,0 0.28787,-0.0494 0.28787,-0.13688 0,-0.0744 -0.0621,-0.12417 -0.19579,-0.17356 -0.36936,-0.12418 -0.4311,-0.36054 -0.44168,-0.58385 0,-1.01882 0.0208,-1.83974 -0.0198,-2.48602 -0.0208,-0.44697 -0.11395,-0.88195 -0.33902,-1.19275 -0.2159,-0.26035 -0.50306,-0.42157 -0.88336,-0.42157 -0.18485,0 -0.37959,0.049 -0.61595,0.18627 -0.10266,0.0494 -0.71931,0.50906 -0.74965,0.52141 -0.0519,0 -0.0621,0 -0.0829,-0.0497 -0.0406,-0.0744 -0.16369,-0.29809 -0.34855,-0.47166 -0.1845,-0.16192 -0.43145,-0.24906 -0.80116,-0.24906 -0.4826,0 -1.11901,0.47202 -1.37618,0.73342 -0.0406,0.037 -0.0614,-0.0497 -0.0614,-0.0744 0,-0.12418 0.0409,-0.48437 0.0409,-0.65899 0,-0.0247 -0.072,-0.11148 -0.12277,-0.12383 -0.0208,0 -0.0413,0.0123 -0.0825,0.0494 -0.11324,0.0995 -0.57468,0.41028 -0.77999,0.50941 -0.11395,0.0752 -0.20603,0.14958 -0.20603,0.22402 m -2.05422,-0.32315 c 0.37006,0 0.67804,0.39758 0.67804,0.74542 0,0.24871 -0.10266,0.3108 -0.34855,0.3108 -0.51329,0.0123 -1.05762,0.0123 -1.32503,0 -0.0205,0 -0.0621,-0.0744 -0.0413,-0.13652 0.1845,-0.57186 0.57538,-0.9197 1.03681,-0.9197 m 0.10336,-0.32314 c -0.17497,0 -0.51399,0.0744 -0.78069,0.22366 -0.80046,0.44732 -1.23261,1.44075 -1.23261,2.43523 0,1.45379 0.74013,2.47262 1.84891,2.47262 0.58561,0 1.12995,-0.2981 1.48872,-0.93134 0.031,-0.0621 0.0716,-0.19932 0.0716,-0.29845 0,-0.0628 -0.0198,-0.14887 -0.0811,-0.14887 -0.0413,0 -0.0931,0.0744 -0.13371,0.14887 -0.17497,0.3108 -0.48295,0.44732 -0.93486,0.44732 -0.49283,0 -0.92428,-0.31079 -1.15005,-0.68368 -0.22613,-0.36019 -0.39018,-0.93133 -0.39018,-1.4164 0,-0.12418 0.0208,-0.33585 0.0512,-0.43498 0.0102,-0.037 0.0515,-0.0991 0.0818,-0.0991 0.47272,0.0123 2.2292,0.0123 2.34209,0.0123 0.11219,0 0.19509,-0.13723 0.19509,-0.21167 0,-0.43462 -0.1337,-0.78246 -0.35983,-1.04387 -0.25612,-0.30974 -0.65723,-0.47166 -1.01636,-0.47166 m -5.08352,0.63359 c 0,0.0497 0.10265,0.0995 0.34925,0.33584 0.11324,0.0868 0.11324,0.24801 0.11324,0.37254 v 2.37313 c -0.0106,0.74542 -0.0413,0.87031 -0.44168,1.03153 -0.0822,0.037 -0.20532,0.0868 -0.20532,0.16121 0,0.0998 0.10266,0.14958 0.21555,0.14958 0.24589,0 0.37006,-0.0497 0.67804,-0.0497 0.59514,0 0.95497,0.0621 1.21144,0.0621 0.15416,0 0.24659,-0.0497 0.24659,-0.11254 0,-0.0494 -0.0208,-0.13617 -0.18486,-0.19826 -0.15416,-0.0497 -0.33902,-0.11183 -0.47237,-0.14887 -0.18485,-0.0377 -0.24694,-0.2734 -0.2667,-0.63394 -0.0106,-0.18662 -0.0621,-2.43558 -0.0621,-2.68358 0,-0.0621 0.031,-0.17427 0.10265,-0.27376 0.10266,-0.13688 0.27764,-0.17356 0.45191,-0.17356 0.20532,0 0.45191,0.14887 0.56515,0.27305 0.0303,0.0247 0.12242,0.0501 0.14323,0.037 0.0621,-0.037 0.30868,-0.37289 0.42086,-0.57115 0.0311,-0.0621 0.0621,-0.14958 0.0621,-0.17427 0,-0.11183 -0.0924,-0.42263 -0.51329,-0.42263 -0.3182,0 -0.77047,0.3108 -1.17052,0.77047 -0.0208,0.0123 -0.0723,0 -0.0723,-0.0497 0,-0.23636 0.0205,-0.45931 0.0205,-0.68333 0,-0.0374 -0.0508,-0.14887 -0.0924,-0.14887 -0.0307,0 -0.0818,0.0497 -0.20532,0.14887 -0.10266,0.0744 -0.42086,0.26106 -0.75988,0.39758 -0.11289,0.0494 -0.1337,0.17428 -0.1337,0.21132 m -3.39902,-3.61597 c -0.3182,0 -0.68827,-0.037 -1.13947,-0.037 -0.16475,0 -0.28787,0.0497 -0.28787,0.14888 0,0.0875 0.0515,0.14957 0.25683,0.21131 0.4519,0.13723 0.62618,0.34819 0.64699,0.77047 0.0208,0.32314 0.0208,1.05621 0.0208,2.22426 0,2.46027 -0.0519,3.37961 -0.0829,3.76485 -0.01,0.16192 -0.0303,0.44767 -0.5849,0.60889 -0.16475,0.0497 -0.27694,0.14958 -0.27694,0.248 0,0.0752 0.0819,0.12489 0.28717,0.12489 0.2159,0 0.81103,-0.0744 1.22167,-0.0744 0.39087,0 0.70908,0.037 0.97578,0.037 0.19508,0 0.28716,-0.0744 0.28716,-0.14922 0,-0.11183 -0.0921,-0.19862 -0.24589,-0.23566 -0.66745,-0.14958 -0.68756,-0.39758 -0.6985,-0.78281 -0.0106,-0.36054 -0.0512,-2.10009 -0.0409,-2.33645 0.0106,-0.0497 0.0519,-0.14887 0.0822,-0.14887 0.21555,-0.0374 0.70838,-0.0374 0.90311,-0.0374 0.20602,0 0.57538,0.0374 0.68862,0.0621 0.19474,0.0621 0.31821,0.12418 0.42087,0.5969 0.0413,0.17357 0.10265,0.26035 0.15416,0.26035 0.10266,0 0.15452,-0.14887 0.15452,-0.2861 0,-0.2727 -0.0215,-0.38488 -0.0215,-0.98108 0,-0.22401 0.0519,-0.62159 0.0519,-0.78281 0,-0.14922 -0.0208,-0.2734 -0.0924,-0.2734 -0.0924,0 -0.13371,0.12418 -0.19509,0.29845 -0.14393,0.42227 -0.23636,0.53375 -0.55457,0.57115 -0.24659,0.0254 -1.07844,0.013 -1.47849,0.013 -0.0519,0 -0.10266,-0.12489 -0.10266,-0.46038 0,-0.81985 0.0198,-2.44722 0.0413,-2.74567 0,-0.037 0.0614,-0.14887 0.16404,-0.16192 0.21555,-0.0247 1.24213,-0.037 1.59138,0.0247 0.33902,0.0628 0.45226,0.17463 0.6163,0.78352 0.061,0.24801 0.14394,0.38524 0.22578,0.38524 0.0924,0 0.15452,-0.17428 0.14394,-0.3355 -0.0102,-0.42333 -0.0515,-0.85795 -0.031,-1.21814 0,-0.0744 -0.0716,-0.13652 -0.12312,-0.12418 -0.0822,0 -1.02658,0.037 -1.64253,0.037 z m -4.94982,2.96968 c -0.34855,0 -0.62618,0.11183 -0.82127,0.26141 -0.38982,0.28575 -0.5648,0.69568 -0.5648,1.1183 0,0.5842 0.32844,1.01883 0.63641,1.25519 0.31856,0.248 0.3803,0.31009 0.62724,0.52176 0.31821,0.23565 0.46214,0.49671 0.46214,0.8322 0,0.23636 -0.0825,0.5341 -0.23706,0.68368 -0.11219,0.0991 -0.27694,0.18592 -0.40993,0.18592 -0.37007,0 -0.6477,-0.24801 -0.93486,-0.88195 -0.0614,-0.13652 -0.13371,-0.2861 -0.2159,-0.2861 -0.061,0 -0.0819,0.12488 -0.0819,0.26141 0,0.36018 0.12347,0.88194 0.15381,0.94368 0.17498,0.17462 0.68827,0.27375 0.99625,0.27375 0.3182,0 0.67804,-0.13652 0.86254,-0.28539 0.25717,-0.22402 0.59549,-0.64629 0.59549,-1.21815 0,-0.5588 -0.22543,-0.98178 -0.80081,-1.3917 -0.68756,-0.45967 -1.01706,-0.78282 -1.01706,-1.20509 0,-0.26141 0.1958,-0.77047 0.61666,-0.77047 0.33831,0 0.59549,0.24871 0.82127,0.83256 0.0519,0.13687 0.11324,0.21131 0.15451,0.21131 0.0819,0 0.12277,-0.11218 0.12277,-0.22401 0,-0.0868 -0.0303,-0.50906 -0.0303,-0.73308 0,-0.0744 -0.0621,-0.16122 -0.0829,-0.17356 -0.0198,-0.0123 -0.21484,-0.11219 -0.32773,-0.13723 -0.11395,-0.037 -0.32879,-0.0744 -0.52458,-0.0744 m -3.82941,-3.18029 c 0,0.0487 0.0303,0.0868 0.20532,0.23565 0.23566,0.17428 0.24589,0.24871 0.24589,0.34784 0,0.37289 0.031,1.67781 0.031,2.5968 0,1.96391 -0.0519,3.30553 -0.0716,3.77719 -0.0311,0.6216 -0.0519,0.84561 -0.52458,0.96979 -0.11219,0.0247 -0.22508,0.0868 -0.22508,0.17356 0,0.0998 0.0819,0.13688 0.28717,0.13688 0.2159,0 0.6678,-0.037 0.90417,-0.037 0.1845,0 0.62547,0.037 0.87206,0.037 0.12347,0 0.26741,-0.0494 0.26741,-0.13688 0,-0.0744 -0.0819,-0.13652 -0.23636,-0.18626 -0.44168,-0.14923 -0.48225,-0.2981 -0.52353,-0.54681 -0.0519,-0.33584 -0.031,-2.70863 -0.031,-4.52296 0,-1.66441 0.0621,-3.06882 0.0924,-3.37961 0,-0.0494 -0.0614,-0.14958 -0.0924,-0.12383 -0.27693,0.21132 -0.58491,0.28575 -1.05763,0.48437 -0.11289,0.037 -0.14323,0.12453 -0.14323,0.17427 m -2.62925,7.67821 c -0.2159,0 -0.64629,-0.19826 -0.64629,-0.74472 0,-0.29915 0.10266,-0.38594 0.20532,-0.47272 0.27693,-0.16122 0.76941,-0.37253 1.05763,-0.37253 0.0406,0 0.0818,0.0617 0.0818,0.0991 0,0.24871 0,0.67098 -0.0208,0.96943 0,0.0247 -0.061,0.26106 -0.12312,0.3108 -0.19509,0.12382 -0.4004,0.21061 -0.55457,0.21061 m 0.30868,-4.49792 c -0.19508,0 -0.65758,0.21167 -0.95497,0.47202 -0.483303,0.38594 -0.770464,0.73307 -0.770464,1.09361 0,0.0628 0.06138,0.16192 0.123472,0.16192 0.0508,0 0.564092,-0.31079 0.666752,-0.40993 0.0208,-0.0247 0.0621,-0.0998 0.0621,-0.13652 -0.0208,-0.24871 0.0102,-0.47272 0.0716,-0.50976 0.0716,-0.0621 0.20532,-0.13653 0.42086,-0.13653 0.50307,0 0.80152,0.52176 0.80152,0.8322 0,0.14958 -0.0102,0.907 -0.0208,1.01918 0,0.0744 -0.0617,0.13652 -0.29739,0.22331 -0.22613,0.0875 -1.0474,0.36018 -1.20191,0.43462 -0.154168,0.0868 -0.307979,0.14958 -0.410637,0.3108 -0.112889,0.17427 -0.194733,0.41063 -0.194733,0.63394 0,0.62159 0.348544,1.15535 0.70802,1.15535 0.0519,0 0.29775,-0.0247 0.41064,-0.0741 0.10266,-0.0374 0.54433,-0.24906 0.92428,-0.5722 0.0205,-0.0116 0.0617,0.0381 0.0617,0.0504 0.12347,0.45967 0.42122,0.62089 0.65758,0.62089 0.46143,0 0.92392,-0.5341 0.92392,-0.77046 0,-0.0123 0,-0.0868 -0.031,-0.12383 -0.0208,-0.0374 -0.0303,-0.0621 -0.0614,-0.0374 -0.11289,0.0991 -0.34925,0.18591 -0.38982,0.18591 -0.0829,0 -0.41134,-0.0494 -0.41134,-0.62124 0,-0.13653 0.0413,-1.7018 0.0413,-2.18687 0,-0.52176 -0.0518,-0.76976 -0.20531,-1.03082 -0.15452,-0.27375 -0.41064,-0.58455 -0.92393,-0.58455 m -6.161262,0 c -0.431447,0 -0.873125,0.26141 -1.293989,0.72072 -0.01058,0.0127 -0.07232,0 -0.07232,-0.0744 0,-0.36019 0.04127,-3.4544 0.143934,-4.34905 0,-0.037 -0.02081,-0.13617 -0.06138,-0.13617 -0.06209,0 -0.154163,0.0617 -0.195791,0.0868 -0.245886,0.19896 -0.708025,0.32314 -1.026584,0.43462 0,0 -0.03104,0.0123 -0.03104,0.0621 0,0.0998 0.06209,0.22401 0.102658,0.2487 0.28822,0.22402 0.307975,0.24871 0.33902,0.57186 0.04127,0.35983 0.03104,0.8449 0.03104,1.26718 0,3.18064 -0.07161,4.62174 -0.102658,5.1442 -0.03105,0.45967 -0.133703,0.59584 -0.400403,0.70838 -0.216253,0.0744 -0.298097,0.14887 -0.298097,0.21061 0,0.12488 0.143933,0.16192 0.236361,0.16192 0.174978,0 0.544336,-0.037 0.780697,-0.037 0.246592,0 0.759884,0.0247 0.841728,0.0247 0.143933,0 0.257175,-0.037 0.257175,-0.14958 0,-0.0617 -0.0829,-0.14852 -0.226131,-0.19826 -0.236361,-0.0744 -0.380294,-0.14888 -0.401108,-0.55951 -0.0095,-0.44732 -0.0095,-2.06234 0.02081,-2.58445 0.01023,-0.38523 0.143933,-0.58385 0.164747,-0.60854 0.04127,-0.0501 0.379589,-0.28575 0.821267,-0.28575 0.400403,0 0.667808,0.17357 0.831497,0.40993 0.113242,0.16122 0.164747,0.5595 0.164747,1.24283 0,0.19862 0.02081,1.56563 0,1.80129 -0.04127,0.47201 -0.07161,0.50976 -0.328436,0.60889 -0.123472,0.0374 -0.2159,0.0991 -0.2159,0.17357 0,0.0875 0.05115,0.14958 0.205317,0.14958 0.297744,0 0.503061,-0.0247 0.739422,-0.0247 0.34925,0 0.462139,0.037 0.811036,0.037 0.195439,0 0.277636,-0.0494 0.277636,-0.16192 0,-0.0744 -0.0822,-0.14852 -0.288219,-0.19826 -0.266347,-0.0744 -0.40005,-0.17428 -0.40005,-0.48437 -0.01058,-0.74612 -0.03034,-1.51588 -0.04092,-2.2987 0,-0.53446 -0.09207,-1.00647 -0.298098,-1.34196 -0.2159,-0.36054 -0.574675,-0.57221 -1.087966,-0.57221 m -4.179711,0.0374 c -0.276931,0 -0.945445,0.17428 -1.345495,0.52141 -0.595489,0.48507 -0.995891,1.24319 -0.995891,2.15053 0,0.52176 0.14358,1.10596 0.318558,1.4538 0.32773,0.58385 0.872067,0.99378 1.519061,0.99378 0.534811,0 1.119717,-0.2854 1.47955,-0.77047 0.08184,-0.0991 0.132997,-0.22331 0.132997,-0.36019 0,-0.0621 -0.0822,-0.0995 -0.195086,0 -0.2667,0.22296 -0.534105,0.37254 -0.913694,0.37254 -0.534106,0 -1.03752,-0.3108 -1.293989,-0.83221 -0.04127,-0.0744 -0.267406,-0.52246 -0.267406,-1.24319 0,-0.5461 0.154517,-1.05551 0.431447,-1.42875 0.164748,-0.24835 0.472723,-0.42262 0.636764,-0.42262 0.34925,0 0.524228,0.18697 0.862542,0.48507 0.164747,0.13652 0.339019,0.23636 0.401108,0.23636 0.04057,0 0.338314,-0.29881 0.338314,-0.49742 0,-0.0744 -0.05115,-0.28575 -0.153811,-0.37289 -0.195086,-0.18591 -0.646994,-0.28575 -0.954969,-0.28575 m -3.913011,-0.0374 c -0.348545,0 -0.626181,0.11183 -0.821267,0.26141 -0.390172,0.28575 -0.564797,0.69568 -0.564797,1.1183 0,0.5842 0.328789,1.01883 0.636764,1.25519 0.318205,0.248 0.379941,0.31009 0.626886,0.52176 0.318205,0.23565 0.461433,0.49671 0.461433,0.8322 0,0.23636 -0.08184,0.5341 -0.236361,0.68368 -0.112183,0.0991 -0.276931,0.18592 -0.410633,0.18592 -0.369359,0 -0.646642,-0.24801 -0.934156,-0.88195 -0.06174,-0.13652 -0.133703,-0.2861 -0.2159,-0.2861 -0.06138,0 -0.0822,0.12488 -0.0822,0.26141 0,0.36018 0.123472,0.88194 0.154164,0.94368 0.174625,0.17462 0.687916,0.27375 0.996244,0.27375 0.318206,0 0.678039,-0.13652 0.862542,-0.28539 0.257175,-0.22402 0.595489,-0.64629 0.595489,-1.21815 0,-0.5588 -0.225425,-0.98178 -0.800806,-1.3917 -0.688269,-0.45967 -1.016705,-0.78282 -1.016705,-1.20509 0,-0.26141 0.195086,-0.77047 0.615597,-0.77047 0.339019,0 0.596194,0.24871 0.821972,0.83256 0.05186,0.13687 0.113242,0.21131 0.154517,0.21131 0.08184,0 0.122766,-0.11218 0.122766,-0.22401 0,-0.0868 -0.03034,-0.50906 -0.03034,-0.73308 0,-0.0744 -0.06209,-0.16122 -0.0829,-0.17356 -0.01976,-0.0123 -0.214842,-0.11219 -0.328436,-0.13723 -0.113242,-0.037 -0.328084,-0.0744 -0.523875,-0.0744 m -3.296003,0.17462 c -0.04127,0 -0.0822,-0.0628 -0.0822,-0.10018 v -0.5835 c 0,-0.0247 -0.09243,-0.13723 -0.143934,-0.13723 -0.04092,0 -0.112889,0.10019 -0.236008,0.27376 -0.143933,0.21131 -0.462139,0.50976 -0.82162,0.85689 -0.03069,0.0381 -0.06174,0.0879 -0.06174,0.13723 0,0.0374 0.06174,0.0991 0.143934,0.13653 0.205316,0.0744 0.390172,0.16192 0.390172,0.24871 0,0.43462 -0.04092,2.2987 -0.04092,2.75872 0,0.34749 0.02046,0.60854 0.13335,0.8195 0.123119,0.27341 0.4826,0.5842 0.903816,0.5842 0.462139,0 0.821267,-0.22331 1.09855,-0.54645 0.07197,-0.0868 0.143934,-0.21167 0.143934,-0.3108 0,-0.11147 -0.05151,-0.13723 -0.06174,-0.13723 -0.04092,0 -0.06138,0.0127 -0.153812,0.0744 -0.154163,0.11253 -0.369711,0.18697 -0.503413,0.18697 -0.215548,0 -0.431095,-0.025 -0.626181,-0.23565 -0.113242,-0.13724 -0.174625,-0.29845 -0.174625,-0.60925 0,-0.59655 0.01023,-2.42323 0.02046,-2.67124 0,-0.0254 0.04092,-0.0875 0.09243,-0.0875 h 1.119364 c 0.07197,0 0.267053,-0.0251 0.267053,-0.13653 0,-0.16122 -0.03105,-0.50906 -0.03105,-0.47202 0,-0.037 -0.102658,-0.0991 -0.112889,-0.0991 -0.04092,0 -1.037166,0.0497 -1.262944,0.0497 m -3.984625,4.37374 c -0.246239,0 -0.431095,0 -0.698148,-0.2487 -0.143933,-0.12489 -0.256822,-0.40993 -0.256822,-0.69604 0,-0.5595 0.04127,-2.90759 0.03105,-3.32986 0,-0.0744 -0.04127,-0.18662 -0.0822,-0.18662 -0.04127,0 -0.801158,0.13687 -1.088672,0.13687 -0.123119,0 -0.174625,0.0744 -0.174625,0.11183 0,0.11148 0.09243,0.17428 0.184856,0.22296 0.174625,0.0875 0.369711,0.13723 0.379941,0.48507 0.02046,0.65899 0.02046,2.06304 0.02046,2.95734 0,0.19932 0.07197,0.44732 0.143933,0.58384 0.205317,0.38488 0.534105,0.5842 0.903817,0.5842 0.287513,0 0.513291,-0.0621 0.687916,-0.14887 0.13335,-0.0621 0.544336,-0.38523 0.842081,-0.63394 0.02046,-0.0123 0.05115,0.0247 0.05115,0.0868 -0.01023,0.21167 -0.04092,0.44732 -0.04092,0.52247 0,0.0868 0.06174,0.17356 0.102659,0.17356 0.02046,0 0.184855,-0.0497 0.35948,-0.11183 0.236009,-0.0744 0.667456,-0.21131 0.934509,-0.23636 0.04092,0 0.112889,-0.0868 0.112889,-0.12382 -0.01023,-0.0374 -0.0822,-0.23636 -0.12312,-0.23636 -0.123472,0 -0.441678,0.0621 -0.513644,0.0621 -0.0822,0 -0.12312,-0.14887 -0.12312,-0.17356 0,-1.01918 0.0822,-3.77719 0.102659,-4.12539 0,-0.0494 -0.02046,-0.18662 -0.07197,-0.18662 -0.07161,0 -0.143581,0.0123 -0.246239,0.0497 -0.236361,0.0741 -0.688269,0.13687 -1.098903,0.13687 -0.102658,0 -0.236361,0.0621 -0.236361,0.11183 0,0.0991 0.133703,0.17428 0.20567,0.19897 0.09243,0.024 0.318205,0.0991 0.472369,0.14887 0.06138,0.0247 0.174625,0.19826 0.174625,0.27341 l -0.02081,2.8582 c 0,0.0497 -0.09243,0.23566 -0.153811,0.29775 -0.256822,0.2734 -0.534106,0.43532 -0.780697,0.43532 M 75.49957,128.9582 c 0.369711,0 0.677686,0.39758 0.677686,0.74542 0,0.24871 -0.102658,0.3108 -0.348897,0.3108 -0.513645,0.0123 -1.057981,0.0123 -1.324681,0 -0.02081,0 -0.06174,-0.0744 -0.04127,-0.13652 0.184856,-0.57186 0.575028,-0.9197 1.037167,-0.9197 m 0.102658,-0.32314 c -0.174272,0 -0.513291,0.0744 -0.780344,0.22366 -0.800806,0.44732 -1.232253,1.44075 -1.232253,2.43523 0,1.45379 0.739422,2.47262 1.848556,2.47262 0.585258,0 1.129594,-0.2981 1.488722,-0.93134 0.03104,-0.0621 0.07197,-0.19932 0.07197,-0.29845 0,-0.0628 -0.02046,-0.14887 -0.0822,-0.14887 -0.04092,0 -0.09243,0.0744 -0.13335,0.14887 -0.174625,0.3108 -0.4826,0.44732 -0.934508,0.44732 -0.492831,0 -0.924278,-0.31079 -1.150056,-0.68368 -0.22613,-0.36019 -0.390172,-0.93133 -0.390172,-1.4164 0,-0.12418 0.02046,-0.33585 0.05115,-0.43498 0.01023,-0.037 0.05151,-0.0991 0.0822,-0.0991 0.47237,0.0123 2.228497,0.0123 2.341386,0.0123 0.112889,0 0.195086,-0.13723 0.195086,-0.21167 0,-0.43462 -0.13335,-0.78246 -0.35948,-1.04387 -0.256822,-0.30974 -0.657225,-0.47166 -1.016706,-0.47166 m -7.003344,-2.70863 c 0.760236,0 1.622778,0.2734 2.136069,0.73307 0.657225,0.59585 1.098903,1.7646 1.098903,2.83316 0,1.39136 -0.441678,2.47227 -1.057628,3.10621 -0.575027,0.5842 -1.448152,0.80751 -1.920522,0.80751 -0.225778,0 -0.646994,-0.14887 -0.84208,-0.32314 -0.03069,-0.0247 -0.195087,-0.19862 -0.225778,-0.5835 -0.03069,-0.54716 -0.04127,-1.28023 -0.04127,-2.14983 v -1.80199 c 0,-1.1056 0.02081,-2.21156 0.04127,-2.36043 0.01023,-0.0744 0.03069,-0.0998 0.102658,-0.16193 0.09243,-0.0621 0.33902,-0.0991 0.708378,-0.0991 m 0.451908,-0.38523 c -0.883003,0 -2.043289,0.11148 -2.556933,0.11148 h -0.287514 c -0.154164,0 -0.246592,0.0621 -0.246592,0.16157 0,0.0875 0.123473,0.17427 0.236361,0.19897 0.626534,0.11147 0.636764,0.2861 0.657225,1.08091 0.03069,1.01917 0.05115,2.48532 0.05115,3.19369 0,0.73308 -0.01023,1.11831 -0.03069,1.7018 -0.03069,0.98214 -0.0822,1.21779 -0.790575,1.31763 -0.123473,0.0123 -0.226131,0.0744 -0.226131,0.17357 0,0.0998 0.09243,0.18662 0.328789,0.18662 0.164394,0 0.34925,0 0.544336,0.0123 0.677686,0.0621 1.591733,0.0995 2.012597,0.0995 0.986014,0 1.838325,-0.27305 2.444045,-0.69603 0.718961,-0.48437 1.642886,-1.78929 1.642886,-3.59058 0,-0.98178 -0.379942,-2.10008 -0.934156,-2.74637 -0.410986,-0.45967 -1.406878,-1.20509 -2.8448,-1.20509 m -8.173861,3.72745 c 0,0.0497 0.102658,0.0995 0.348897,0.33584 0.113242,0.0868 0.113242,0.24801 0.113242,0.37254 v 2.37313 c -0.01023,0.74542 -0.04127,0.87031 -0.441678,1.03153 -0.0822,0.037 -0.205317,0.0868 -0.205317,0.16121 0,0.0998 0.102659,0.14958 0.215548,0.14958 0.246591,0 0.369711,-0.0497 0.677686,-0.0497 0.595842,0 0.954969,0.0621 1.211792,0.0621 0.154163,0 0.246591,-0.0497 0.246591,-0.11254 0,-0.0494 -0.02046,-0.13617 -0.184855,-0.19826 -0.154164,-0.0497 -0.33902,-0.11183 -0.47237,-0.14887 -0.184855,-0.0377 -0.246591,-0.2734 -0.267053,-0.63394 -0.01023,-0.18662 -0.06174,-2.43558 -0.06174,-2.68358 0,-0.0621 0.03105,-0.17427 0.102659,-0.27376 0.102658,-0.13688 0.277283,-0.17356 0.451908,-0.17356 0.205317,0 0.451908,0.14887 0.564797,0.27305 0.03104,0.0247 0.123472,0.0501 0.143934,0.037 0.06138,-0.037 0.307975,-0.37289 0.420863,-0.57115 0.03104,-0.0621 0.06174,-0.14958 0.06174,-0.17427 0,-0.11183 -0.09243,-0.42263 -0.513645,-0.42263 -0.318205,0 -0.770114,0.3108 -1.170517,0.77047 -0.02046,0.0123 -0.07197,0 -0.07197,-0.0497 0,-0.23636 0.02046,-0.45931 0.02046,-0.68333 0,-0.0374 -0.05115,-0.14887 -0.09243,-0.14887 -0.03069,0 -0.08184,0.0497 -0.205317,0.14887 -0.102658,0.0744 -0.420864,0.26106 -0.759883,0.39758 -0.112889,0.0494 -0.13335,0.17428 -0.13335,0.21132 m -2.782711,3.90207 c -0.246592,0 -0.431447,0 -0.6985,-0.2487 -0.143581,-0.12489 -0.256822,-0.40993 -0.256822,-0.69604 0,-0.5595 0.04127,-2.90759 0.03104,-3.32986 0,-0.0744 -0.04127,-0.18662 -0.0822,-0.18662 -0.04127,0 -0.801158,0.13687 -1.088672,0.13687 -0.12312,0 -0.174625,0.0744 -0.174625,0.11183 0,0.11148 0.09243,0.17428 0.184855,0.22296 0.174625,0.0875 0.369711,0.13723 0.379942,0.48507 0.02081,0.65899 0.02081,2.06304 0.02081,2.95734 0,0.19932 0.07161,0.44732 0.14358,0.58384 0.205317,0.38488 0.534106,0.5842 0.903817,0.5842 0.287514,0 0.513292,-0.0621 0.687917,-0.14887 0.13335,-0.0621 0.544336,-0.38523 0.84208,-0.63394 0.02046,-0.0123 0.05151,0.0247 0.05151,0.0868 -0.01058,0.21167 -0.04127,0.44732 -0.04127,0.52247 0,0.0868 0.06174,0.17356 0.102658,0.17356 0.02046,0 0.184856,-0.0497 0.359481,-0.11183 0.236361,-0.0744 0.667455,-0.21131 0.934508,-0.23636 0.04092,0 0.112889,-0.0868 0.112889,-0.12382 -0.01023,-0.0374 -0.0822,-0.23636 -0.12312,-0.23636 -0.123119,0 -0.441677,0.0621 -0.513644,0.0621 -0.08184,0 -0.123119,-0.14887 -0.123119,-0.17356 0,-1.01918 0.0822,-3.77719 0.102658,-4.12539 0,-0.0494 -0.02046,-0.18662 -0.07197,-0.18662 -0.07161,0 -0.14358,0.0123 -0.246239,0.0497 -0.236361,0.0741 -0.688269,0.13687 -1.098902,0.13687 -0.102659,0 -0.236009,0.0621 -0.236009,0.11183 0,0.0991 0.13335,0.17428 0.205317,0.19897 0.09243,0.024 0.318205,0.0991 0.472369,0.14887 0.06138,0.0247 0.174625,0.19826 0.174625,0.27341 l -0.02081,2.8582 c 0,0.0497 -0.09243,0.23566 -0.153811,0.29775 -0.256822,0.2734 -0.534105,0.43532 -0.780344,0.43532 m 0.770114,-6.97089 c -0.2159,0 -0.462139,0.21097 -0.462139,0.57115 0,0.3108 0.215547,0.53481 0.441325,0.53481 0.246592,0 0.462139,-0.24871 0.462139,-0.54716 0,-0.2734 -0.205317,-0.5588 -0.441325,-0.5588 m -1.735667,-0.0123 c -0.277283,0 -0.451908,0.28539 -0.451908,0.58349 0,0.34819 0.246591,0.53481 0.431447,0.53481 0.215547,0 0.441678,-0.17427 0.441678,-0.54716 0,-0.28575 -0.174625,-0.57114 -0.421217,-0.57114 m -2.782711,2.60949 c -0.03069,0 -0.06174,-0.0628 -0.06174,-0.11183 0,-1.62807 0.09243,-2.29905 0.339019,-2.82081 0.184856,-0.36018 0.390173,-0.50976 0.636764,-0.50976 0.267053,0 0.523522,0.17427 0.718609,0.38523 0.143933,0.17427 0.205669,0.24871 0.277283,0.24871 0.06174,0 0.133703,-0.0127 0.184855,-0.0374 0.143934,-0.0621 0.277284,-0.34784 0.277284,-0.52211 0,-0.14888 -0.07161,-0.32244 -0.174272,-0.42263 -0.164395,-0.16122 -0.441678,-0.23566 -0.657225,-0.23566 -0.390525,0 -0.760237,0.13653 -1.17087,0.50941 -0.451908,0.39758 -0.708378,0.84455 -0.924278,1.46615 -0.184855,0.5341 -0.236008,1.10596 -0.256822,1.85138 0,0.0621 -0.06138,0.13652 -0.13335,0.21166 -0.236008,0.22331 -0.49283,0.36019 -0.503061,0.40993 -0.03104,0.0868 0.04092,0.21061 0.09243,0.21061 0.112889,-0.0247 0.328436,-0.0247 0.431094,-0.0247 0.04127,0 0.102659,0.0374 0.102659,0.46038 0,0.67098 -0.01023,2.16147 -0.02046,2.67123 -0.01023,0.5588 -0.02046,0.68369 -0.462138,0.83256 -0.112889,0.0494 -0.215548,0.13688 -0.215548,0.19896 0,0.0868 0.112889,0.13653 0.256823,0.13653 0.102658,0 0.657225,-0.0621 1.026936,-0.0621 0.256469,0 0.728839,0.0247 0.852311,0.0247 0.123119,0 0.267053,-0.0247 0.267053,-0.14958 0,-0.0494 -0.06174,-0.14852 -0.236362,-0.18592 -0.575027,-0.11147 -0.646994,-0.2233 -0.687916,-0.65863 -0.02081,-0.21096 -0.05151,-2.93264 -0.03104,-3.18065 0,-0.0247 0.05151,-0.0998 0.07197,-0.0998 0.112889,0 1.129594,0.037 1.201561,0.037 0.05115,0 0.154164,-0.0868 0.154164,-0.12383 0,-0.26105 -0.07197,-0.52246 -0.143933,-0.52246 -0.04092,0 -0.585259,0.0134 -1.211792,0.0134 m -8.328025,0.42228 c 0,0.037 0.06174,0.0991 0.195086,0.21061 0.225778,0.22401 0.246592,0.34819 0.246592,0.48542 0,1.26683 -0.02081,2.34809 -0.05151,2.72062 -0.03069,0.44733 -0.09243,0.5715 -0.431447,0.69603 -0.112889,0.0374 -0.215547,0.0991 -0.215547,0.18592 0,0.11253 0.112889,0.16192 0.267053,0.16192 0.174625,0 0.472369,-0.037 0.852311,-0.037 0.215547,0 0.503061,0.0123 0.626533,0.0123 0.143581,0 0.256822,-0.0628 0.256822,-0.14887 0,-0.0752 -0.0822,-0.14958 -0.184855,-0.18662 -0.328789,-0.11219 -0.369711,-0.21096 -0.379942,-0.38524 -0.01058,-0.14887 -0.01058,-2.82081 -0.01058,-2.98203 0,-0.11218 0.07197,-0.26105 0.102658,-0.29845 0.195439,-0.21131 0.462139,-0.39758 0.914047,-0.39758 0.236361,0 0.544336,0.13653 0.657225,0.23636 0.123472,0.11183 0.307975,0.47202 0.307975,0.91934 0,0.36019 -0.01023,1.86373 -0.03069,2.27365 -0.02046,0.40993 -0.07197,0.50906 -0.318206,0.6216 -0.123472,0.0494 -0.236361,0.12382 -0.236361,0.21061 0,0.10019 0.143933,0.14958 0.236361,0.14958 0.13335,0 0.451908,-0.0247 0.708378,-0.0247 0.287514,0 0.523875,0.0247 0.759883,0.0247 0.164395,0 0.308328,-0.0494 0.308328,-0.13688 0,-0.0871 -0.06174,-0.14887 -0.256822,-0.21096 -0.256823,-0.0868 -0.359481,-0.24871 -0.379942,-0.43498 -0.01023,-0.17427 -0.03069,-2.02565 -0.03069,-2.26201 0,-0.62054 -0.133702,-1.19274 -0.35948,-1.51589 -0.143934,-0.19826 -0.431447,-0.47166 -0.934509,-0.47166 -0.431447,0 -0.9652,0.34784 -1.376186,0.68333 -0.01023,0 -0.06138,0.0247 -0.06138,-0.037 0,-0.11183 0.04092,-0.40993 0.04092,-0.6216 0,-0.0497 -0.0515,-0.18591 -0.102658,-0.18591 -0.05151,0 -0.143933,0.0617 -0.246592,0.13617 -0.14358,0.12418 -0.513291,0.28611 -0.687916,0.36054 -0.07197,0.037 -0.184856,0.16193 -0.184856,0.24871 m -1.529997,-3.11926 c -0.143934,0 -0.297745,0.0497 -0.400403,0.16192 -0.0822,0.13653 -0.123472,0.3355 -0.123472,0.44733 0,0.21131 0.07197,0.34783 0.154164,0.45931 0.09243,0.0995 0.256822,0.14958 0.328436,0.14958 0.205669,0 0.493183,-0.2734 0.493183,-0.60889 0,-0.22402 -0.174625,-0.60925 -0.451908,-0.60925 m -0.934509,3.10691 c 0,0.0494 0.02046,0.0868 0.0822,0.13617 0.297744,0.26141 0.410633,0.36054 0.420863,0.44733 0.02046,0.14957 0.01023,1.91417 0.01023,1.93886 0,0.35984 -0.01023,1.10596 -0.04092,1.27953 -0.02046,0.12418 -0.174625,0.2734 -0.410634,0.34784 -0.174625,0.0621 -0.246591,0.12418 -0.246591,0.19932 0,0.0868 0.102658,0.13652 0.267053,0.13652 0.174625,0 0.533752,-0.0497 0.872772,-0.0497 0.215547,0 0.729192,0.037 0.801158,0.037 0.112889,0 0.236009,-0.0494 0.236009,-0.12382 0,-0.0875 -0.06174,-0.14958 -0.225778,-0.21167 -0.256822,-0.0991 -0.4826,-0.12382 -0.493184,-0.5214 -0.01023,-0.43498 -0.02046,-0.95709 -0.02046,-1.65312 0,-0.70838 0.06174,-2.3234 0.06174,-2.46027 0,-0.0127 -0.0515,-0.13653 -0.09243,-0.13653 -0.154164,0.0494 -0.636764,0.32315 -1.016706,0.42228 -0.112889,0.0247 -0.205317,0.12417 -0.205317,0.21166 m -2.084564,-0.24871 c 0.369712,0 0.677687,0.39758 0.677687,0.74542 0,0.24871 -0.102659,0.3108 -0.34925,0.3108 -0.513292,0.0123 -1.057628,0.0123 -1.324681,0 -0.02046,0 -0.06138,-0.0744 -0.04092,-0.13652 0.184855,-0.57186 0.575028,-0.9197 1.037166,-0.9197 m 0.102659,-0.32314 c -0.174625,0 -0.513645,0.0744 -0.780345,0.22366 -0.801158,0.44732 -1.232605,1.44075 -1.232605,2.43523 0,1.45379 0.739422,2.47262 1.848555,2.47262 0.585259,0 1.129595,-0.2981 1.489075,-0.93134 0.03069,-0.0621 0.07197,-0.19932 0.07197,-0.29845 0,-0.0628 -0.02081,-0.14887 -0.0822,-0.14887 -0.04127,0 -0.09243,0.0744 -0.133703,0.14887 -0.174272,0.3108 -0.4826,0.44732 -0.934508,0.44732 -0.492831,0 -0.923925,-0.31079 -1.150056,-0.68368 -0.225778,-0.36019 -0.390172,-0.93133 -0.390172,-1.4164 0,-0.12418 0.02046,-0.33585 0.05151,-0.43498 0.01023,-0.037 0.05115,-0.0991 0.0822,-0.0991 0.472369,0.0123 2.228144,0.0123 2.341033,0.0123 0.113242,0 0.195086,-0.13723 0.195086,-0.21167 0,-0.43462 -0.13335,-0.78246 -0.359128,-1.04387 -0.256822,-0.30974 -0.657225,-0.47166 -1.016705,-0.47166 m -5.083175,0.63359 c 0,0.0497 0.102658,0.0995 0.348897,0.33584 0.113242,0.0868 0.113242,0.24801 0.113242,0.37254 v 2.37313 c -0.01023,0.74542 -0.04127,0.87031 -0.441678,1.03153 -0.0822,0.037 -0.205317,0.0868 -0.205317,0.16121 0,0.0998 0.102659,0.14958 0.215547,0.14958 0.246592,0 0.369712,-0.0497 0.677687,-0.0497 0.595841,0 0.954969,0.0621 1.211791,0.0621 0.154164,0 0.246592,-0.0497 0.246592,-0.11254 0,-0.0494 -0.02046,-0.13617 -0.184856,-0.19826 -0.154164,-0.0497 -0.339019,-0.11183 -0.472369,-0.14887 -0.184856,-0.0377 -0.246592,-0.2734 -0.267053,-0.63394 -0.01023,-0.18662 -0.06174,-2.43558 -0.06174,-2.68358 0,-0.0621 0.03104,-0.17427 0.102658,-0.27376 0.103011,-0.13688 0.277284,-0.17356 0.451909,-0.17356 0.205316,0 0.451908,0.14887 0.564797,0.27305 0.03104,0.0247 0.123472,0.0501 0.143933,0.037 0.06138,-0.037 0.307975,-0.37289 0.420864,-0.57115 0.03104,-0.0621 0.06174,-0.14958 0.06174,-0.17427 0,-0.11183 -0.09243,-0.42263 -0.513644,-0.42263 -0.318206,0 -0.770114,0.3108 -1.170517,0.77047 -0.02046,0.0123 -0.07197,0 -0.07197,-0.0497 0,-0.23636 0.02046,-0.45931 0.02046,-0.68333 0,-0.0374 -0.05115,-0.14887 -0.09243,-0.14887 -0.03069,0 -0.08185,0.0497 -0.205317,0.14887 -0.102658,0.0744 -0.420864,0.26106 -0.759883,0.39758 -0.112889,0.0494 -0.13335,0.17428 -0.13335,0.21132 m -2.043642,-0.31045 c 0.369711,0 0.677686,0.39758 0.677686,0.74542 0,0.24871 -0.102658,0.3108 -0.34925,0.3108 -0.513291,0.0123 -1.057628,0.0123 -1.32468,0 -0.02046,0 -0.06138,-0.0744 -0.04092,-0.13652 0.184856,-0.57186 0.575028,-0.9197 1.037167,-0.9197 m 0.102658,-0.32314 c -0.174625,0 -0.513291,0.0744 -0.780344,0.22366 -0.801158,0.44732 -1.232253,1.44075 -1.232253,2.43523 0,1.45379 0.73907,2.47262 1.848203,2.47262 0.585258,0 1.129594,-0.2981 1.489075,-0.93134 0.03069,-0.0621 0.07197,-0.19932 0.07197,-0.29845 0,-0.0628 -0.02046,-0.14887 -0.0822,-0.14887 -0.04092,0 -0.09243,0.0744 -0.13335,0.14887 -0.174625,0.3108 -0.482952,0.44732 -0.934508,0.44732 -0.493183,0 -0.924278,-0.31079 -1.150408,-0.68368 -0.225778,-0.36019 -0.390172,-0.93133 -0.390172,-1.4164 0,-0.12418 0.02046,-0.33585 0.05151,-0.43498 0.01023,-0.037 0.05115,-0.0991 0.0822,-0.0991 0.47237,0.0123 2.228145,0.0123 2.341386,0.0123 0.112889,0 0.195087,-0.13723 0.195087,-0.21167 0,-0.43462 -0.133703,-0.78246 -0.359481,-1.04387 -0.256822,-0.30974 -0.657225,-0.47166 -1.016706,-0.47166 m -7.89693,-2.8829 c 0,0.11218 0.112889,0.16192 0.236008,0.21131 0.451909,0.16122 0.667809,0.47202 0.873125,1.09361 0.153811,0.44733 1.129595,3.45405 1.478845,4.5847 0.297744,0.90735 0.472369,1.66547 0.533752,2.02566 0.02046,0.13652 0.102659,0.23636 0.164395,0.23636 0.102658,0 0.174625,-0.14958 0.215547,-0.28575 0.236361,-0.94474 0.369711,-1.25554 0.965553,-3.00708 0.62618,-1.87678 0.883003,-2.41089 1.355372,-3.65302 0.215547,-0.54715 0.441678,-0.8449 0.893233,-0.98213 0.143934,-0.037 0.267053,-0.11148 0.267053,-0.21131 0,-0.11183 -0.153811,-0.16122 -0.297744,-0.16122 -0.215547,0 -0.626534,0.0494 -0.924278,0.0494 -0.348897,0 -0.585258,-0.0247 -0.821267,-0.0247 -0.164394,0 -0.298097,0.0621 -0.298097,0.14958 0,0.0744 0.0822,0.17357 0.226131,0.22331 0.441325,0.16122 0.718608,0.3108 0.472369,1.00647 -0.462139,1.34232 -1.581503,4.53531 -1.6637,4.79637 -0.03069,0.0868 -0.0822,0.0123 -0.102658,-0.0123 -0.369711,-1.06856 -1.478845,-4.54766 -1.65347,-5.19394 -0.04092,-0.19897 -0.06138,-0.47273 0.482953,-0.59655 0.195086,-0.0374 0.246239,-0.13653 0.246239,-0.22331 0,-0.0875 -0.112889,-0.14958 -0.246239,-0.14958 -0.236361,0 -0.657225,0.0247 -1.016705,0.0247 -0.503414,0 -0.873125,-0.0617 -1.078442,-0.0617 -0.153811,0 -0.307975,0.0617 -0.307975,0.16122"
         style="fill:#ffffff;fill-opacity:1;fill-rule:nonzero;stroke:none;stroke-width:0.352778"
         id="path905"
         inkscape:connector-curvature="0" />
      <path
         d="m 174.70155,111.84487 c -0.0847,0 -0.16933,-0.10583 -0.16933,-0.16969 v -0.99589 c 0,-0.042 -0.19086,-0.23248 -0.29704,-0.23248 -0.0847,0 -0.23284,0.16933 -0.48648,0.46567 -0.29704,0.36054 -0.95356,0.86854 -1.6951,1.46191 -0.0635,0.0635 -0.12665,0.14817 -0.12665,0.23283 0,0.0639 0.12665,0.16969 0.29634,0.23284 0.42368,0.12735 0.80468,0.27552 0.80468,0.42368 0,0.74154 -0.0847,3.91901 -0.0847,4.70253 0,0.59337 0.0427,1.03823 0.27551,1.39771 0.25436,0.46637 0.99484,0.99589 1.86373,0.99589 0.95285,0 1.6951,-0.381 2.26695,-0.93169 0.14817,-0.14852 0.29633,-0.36018 0.29633,-0.52987 0,-0.1905 -0.10618,-0.23283 -0.1277,-0.23283 -0.084,0 -0.12665,0.0212 -0.3168,0.12664 -0.3182,0.19086 -0.7627,0.31821 -1.03822,0.31821 -0.4445,0 -0.88971,-0.0423 -1.29223,-0.40252 -0.23354,-0.23283 -0.36018,-0.50835 -0.36018,-1.03787 0,-1.01671 0.0215,-4.13068 0.0427,-4.55436 0,-0.0427 0.084,-0.14817 0.19086,-0.14817 h 2.30822 c 0.14887,0 0.55069,-0.0423 0.55069,-0.23319 0,-0.27516 -0.0635,-0.86818 -0.0635,-0.80504 0,-0.0631 -0.21167,-0.16898 -0.23284,-0.16898 -0.0847,0 -2.13959,0.0847 -2.60526,0.0847 m -8.53616,7.45596 c -0.50871,0 -0.89042,0 -1.44075,-0.42369 -0.29633,-0.21166 -0.52917,-0.69885 -0.52917,-1.18639 0,-0.95285 0.0847,-4.95653 0.0632,-5.6769 0,-0.12665 -0.0847,-0.31715 -0.16933,-0.31715 -0.0847,0 -1.65241,0.23248 -2.24543,0.23248 -0.25435,0 -0.36054,0.12736 -0.36054,0.1905 0,0.19086 0.19085,0.29704 0.3817,0.38136 0.36054,0.14816 0.762,0.23318 0.78352,0.82656 0.0427,1.12253 0.0427,3.51613 0.0427,5.04119 0,0.33902 0.14817,0.76235 0.29633,0.99519 0.42369,0.65722 1.10173,0.99589 1.86443,0.99589 0.59267,0 1.05904,-0.10584 1.41888,-0.254 0.27552,-0.10584 1.12218,-0.65652 1.73672,-1.08056 0.0427,-0.0208 0.10619,0.0427 0.10619,0.14817 -0.0212,0.36053 -0.0847,0.76305 -0.0847,0.89005 0,0.14782 0.12665,0.29634 0.21167,0.29634 0.0427,0 0.3817,-0.085 0.74189,-0.1905 0.48719,-0.12736 1.37583,-0.36019 1.92722,-0.40252 0.0847,0 0.23284,-0.14817 0.23284,-0.21202 -0.0212,-0.0631 -0.16934,-0.40217 -0.25436,-0.40217 -0.254,0 -0.91087,0.10584 -1.05903,0.10584 -0.16934,0 -0.254,-0.254 -0.254,-0.29634 0,-1.73708 0.16933,-6.4396 0.21131,-7.03298 0,-0.0843 -0.042,-0.3175 -0.14817,-0.3175 -0.14781,0 -0.29598,0.0208 -0.50764,0.085 -0.4879,0.12665 -1.41923,0.23248 -2.26695,0.23248 -0.21132,0 -0.48719,0.10619 -0.48719,0.1905 0,0.17004 0.27587,0.29704 0.42404,0.33938 0.19015,0.042 0.65652,0.16933 0.97402,0.25435 0.127,0.0423 0.36054,0.33867 0.36054,0.46602 l -0.0427,4.87186 c 0,0.0847 -0.19085,0.40217 -0.31785,0.50835 -0.52987,0.46567 -1.10173,0.74119 -1.60937,0.74119 m -8.45221,-7.45596 c -0.0847,0 -0.16968,-0.10583 -0.16968,-0.16969 v -0.99589 c 0,-0.042 -0.19086,-0.23248 -0.29634,-0.23248 -0.0847,0 -0.23283,0.16933 -0.48683,0.46567 -0.29633,0.36054 -0.95391,0.86854 -1.69439,1.46191 -0.0642,0.0635 -0.12735,0.14817 -0.12735,0.23283 0,0.0639 0.12735,0.16969 0.29598,0.23284 0.42404,0.12735 0.80574,0.27552 0.80574,0.42368 0,0.74154 -0.085,3.91901 -0.085,4.70253 0,0.59337 0.042,1.03823 0.27517,1.39771 0.254,0.46637 0.99554,0.99589 1.86443,0.99589 0.95285,0 1.69439,-0.381 2.26624,-0.93169 0.14817,-0.14852 0.29598,-0.36018 0.29598,-0.52987 0,-0.1905 -0.10512,-0.23283 -0.12664,-0.23283 -0.0847,0 -0.12665,0.0212 -0.3175,0.12664 -0.31786,0.19086 -0.76271,0.31821 -1.03858,0.31821 -0.44415,0 -0.88935,-0.0423 -1.29187,-0.40252 -0.23284,-0.23283 -0.35948,-0.50835 -0.35948,-1.03787 0,-1.01671 0.0205,-4.13068 0.042,-4.55436 0,-0.0427 0.0847,-0.14817 0.19085,-0.14817 h 2.30893 c 0.14817,0 0.55033,-0.0423 0.55033,-0.23319 0,-0.27516 -0.0631,-0.86818 -0.0631,-0.80504 0,-0.0631 -0.21167,-0.16898 -0.23319,-0.16898 -0.0854,0 -2.13924,0.0847 -2.60562,0.0847 m -5.95171,-4.59669 c -0.29633,0 -0.61489,0.0847 -0.82621,0.27551 -0.16968,0.23284 -0.25435,0.57186 -0.25435,0.76236 0,0.36018 0.14887,0.59337 0.31785,0.78387 0.19086,0.16898 0.52952,0.254 0.67769,0.254 0.42404,0 1.01635,-0.46567 1.01635,-1.03787 0,-0.381 -0.35948,-1.03787 -0.93133,-1.03787 m -1.92793,5.29519 c 0,0.085 0.0427,0.14852 0.16933,0.23354 0.61454,0.4445 0.84773,0.61419 0.86889,0.76235 0.042,0.254 0.0215,3.26214 0.0215,3.30447 0,0.61419 -0.0215,1.88525 -0.0854,2.18158 -0.0423,0.21202 -0.35983,0.46637 -0.84702,0.59337 -0.36018,0.10583 -0.50835,0.21167 -0.50835,0.33902 0,0.14817 0.21131,0.23248 0.55033,0.23248 0.36054,0 1.10173,-0.0843 1.80058,-0.0843 0.44521,0 1.50389,0.0635 1.65206,0.0635 0.23318,0 0.48718,-0.085 0.48718,-0.21167 0,-0.14852 -0.12664,-0.2547 -0.46566,-0.36019 -0.52917,-0.16933 -0.99554,-0.21201 -1.01636,-0.8897 -0.0212,-0.74154 -0.0427,-1.63089 -0.0427,-2.81728 0,-1.20721 0.12665,-3.96135 0.12665,-4.19383 0,-0.0215 -0.10513,-0.23318 -0.19015,-0.23318 -0.3175,0.0847 -1.31304,0.55033 -2.09727,0.72037 -0.23283,0.0423 -0.42368,0.21167 -0.42368,0.35948 m -4.0453,-0.6985 c -0.0847,0 -0.16934,-0.10583 -0.16934,-0.16969 v -0.99589 c 0,-0.042 -0.19085,-0.23248 -0.29704,-0.23248 -0.0847,0 -0.23283,0.16933 -0.48718,0.46567 -0.29634,0.36054 -0.95286,0.86854 -1.69439,1.46191 -0.0635,0.0635 -0.12736,0.14817 -0.12736,0.23283 0,0.0639 0.12736,0.16969 0.29704,0.23284 0.42369,0.12735 0.80469,0.27552 0.80469,0.42368 0,0.74154 -0.0847,3.91901 -0.0847,4.70253 0,0.59337 0.0427,1.03823 0.27552,1.39771 0.25435,0.46637 0.99483,0.99589 1.86373,0.99589 0.95285,0 1.69509,-0.381 2.26695,-0.93169 0.14816,-0.14852 0.29633,-0.36018 0.29633,-0.52987 0,-0.1905 -0.10619,-0.23283 -0.12771,-0.23283 -0.084,0 -0.12664,0.0212 -0.3175,0.12664 -0.3175,0.19086 -0.762,0.31821 -1.03752,0.31821 -0.4452,0 -0.89041,-0.0423 -1.29222,-0.40252 -0.23354,-0.23283 -0.36019,-0.50835 -0.36019,-1.03787 0,-1.01671 0.0215,-4.13068 0.0427,-4.55436 0,-0.0427 0.084,-0.14817 0.19015,-0.14817 h 2.30893 c 0.14816,0 0.55068,-0.0423 0.55068,-0.23319 0,-0.27516 -0.0635,-0.86818 -0.0635,-0.80504 0,-0.0631 -0.21166,-0.16898 -0.23283,-0.16898 -0.0847,0 -2.1396,0.0847 -2.60526,0.0847 m -6.22794,-0.29669 c -0.72002,0 -1.29188,0.19086 -1.69439,0.44486 -0.80469,0.48718 -1.16523,1.18639 -1.16523,1.90641 0,0.99554 0.67804,1.73708 1.31339,2.1396 0.65652,0.42333 0.78423,0.52951 1.29258,0.88935 0.65581,0.40252 0.95285,0.84737 0.95285,1.41922 0,0.40252 -0.16933,0.91088 -0.48718,1.16488 -0.23354,0.16968 -0.57256,0.31785 -0.84738,0.31785 -0.7627,0 -1.33455,-0.42369 -1.92722,-1.50389 -0.12735,-0.23284 -0.27552,-0.48719 -0.44521,-0.48719 -0.12664,0 -0.16933,0.21202 -0.16933,0.44485 0,0.61419 0.25435,1.50389 0.3175,1.60938 0.36054,0.29668 1.41958,0.46637 2.05458,0.46637 0.65687,0 1.39806,-0.23284 1.77906,-0.48719 0.52987,-0.381 1.22943,-1.10137 1.22943,-2.07574 0,-0.95321 -0.46638,-1.67323 -1.65312,-2.37279 -1.41852,-0.78316 -2.09656,-1.33455 -2.09656,-2.05457 0,-0.4445 0.40252,-1.31304 1.27106,-1.31304 0.69885,0 1.22873,0.42368 1.69439,1.41922 0.10619,0.23319 0.23284,0.36019 0.31785,0.36019 0.16934,0 0.254,-0.1905 0.254,-0.38171 0,-0.14781 -0.0631,-0.86818 -0.0631,-1.24918 0,-0.12736 -0.12771,-0.27588 -0.16969,-0.29669 -0.042,-0.0212 -0.4452,-0.1905 -0.67804,-0.23319 -0.23283,-0.0635 -0.67804,-0.127 -1.0802,-0.127 m -13.6839,1.01671 c 0,0.0635 0.12735,0.16933 0.40217,0.36019 0.46672,0.38135 0.5087,0.59302 0.5087,0.82585 0,2.16041 -0.042,4.00367 -0.10548,4.63903 -0.0642,0.7627 -0.19085,0.97402 -0.89041,1.18639 -0.23283,0.0635 -0.44415,0.16933 -0.44415,0.31715 0,0.19085 0.23284,0.27587 0.55034,0.27587 0.36054,0 0.97507,-0.0635 1.75859,-0.0635 0.44415,0 1.03752,0.0212 1.29188,0.0212 0.29633,0 0.52987,-0.10583 0.52987,-0.25435 0,-0.127 -0.16969,-0.254 -0.38171,-0.31785 -0.67733,-0.19085 -0.76235,-0.35983 -0.78352,-0.65652 -0.0215,-0.25435 -0.0215,-4.80871 -0.0215,-5.08353 0,-0.1905 0.14817,-0.4452 0.21238,-0.50835 0.40252,-0.36019 0.95285,-0.67804 1.88524,-0.67804 0.48719,0 1.12219,0.23319 1.35502,0.40217 0.25435,0.19085 0.63535,0.80539 0.63535,1.56809 0,0.61419 -0.0205,3.17712 -0.0631,3.87633 -0.0423,0.6985 -0.14817,0.86818 -0.65688,1.05903 -0.254,0.0847 -0.48718,0.21167 -0.48718,0.35949 0,0.17003 0.29633,0.25435 0.48718,0.25435 0.27552,0 0.93239,-0.042 1.46156,-0.042 0.59302,0 1.08021,0.042 1.56739,0.042 0.33902,0 0.63606,-0.0843 0.63606,-0.23248 0,-0.14852 -0.12735,-0.25471 -0.52987,-0.36054 -0.52917,-0.14817 -0.74154,-0.42369 -0.78423,-0.74119 -0.0205,-0.29633 -0.0631,-3.45263 -0.0631,-3.85515 0,-1.05904 -0.27517,-2.03341 -0.74084,-2.5841 -0.29704,-0.33902 -0.89005,-0.80504 -1.92793,-0.80504 -0.88935,0 -1.99107,0.59267 -2.8388,1.16487 -0.0205,0 -0.12665,0.0427 -0.12665,-0.0631 0,-0.19086 0.0847,-0.69956 0.0847,-1.0594 0,-0.0847 -0.10619,-0.31785 -0.21202,-0.31785 -0.10548,0 -0.29633,0.10583 -0.50871,0.23319 -0.29633,0.21202 -1.05903,0.48683 -1.41851,0.61418 -0.14817,0.0639 -0.38171,0.27552 -0.38171,0.42369 m -4.80801,0.63571 c 0,1.79987 -0.0427,4.00296 -0.10618,4.7445 -0.0847,0.99554 -0.16934,1.3134 -1.22838,1.54658 -0.42404,0.0847 -0.63535,0.21132 -0.63535,0.35948 0,0.14887 0.14817,0.29669 0.55033,0.29669 0.78423,0 0.97438,-0.042 1.61043,-0.042 0.57186,0 2.0754,0.12664 3.1556,0.12664 0.25435,0 0.57185,-0.10548 0.57185,-0.27481 0,-0.14852 -0.16933,-0.29704 -0.55033,-0.36019 -1.37689,-0.27587 -1.48272,-0.67803 -1.54622,-1.82174 -0.0427,-0.67769 -0.0642,-1.99108 -0.0642,-3.15595 0,-4.15184 0.0215,-5.52909 0.12771,-6.22759 0.0847,-0.5722 0.0631,-1.10172 1.29187,-1.35572 0.33902,-0.0639 0.55033,-0.19085 0.55033,-0.36019 0,-0.16933 -0.19015,-0.254 -0.52917,-0.254 -0.74118,0 -1.22837,0.0635 -2.26695,0.0635 -0.6985,0 -1.75753,-0.0635 -2.30822,-0.0635 -0.29669,0 -0.52987,0.0847 -0.52987,0.254 0,0.14817 0.1277,0.29634 0.59337,0.38136 1.18569,0.21131 1.18569,0.52951 1.24989,1.50353 0.042,0.69921 0.0635,3.32599 0.0635,4.63939 m -7.60483,2.01224 c -0.12665,0.0208 -0.35948,0.33867 -0.35948,0.88935 0,0.16969 0.14817,0.31786 0.33831,0.29669 1.27106,-0.127 3.19899,-0.3175 3.91901,-0.40252 0.25436,-0.0212 0.381,-0.67769 0.381,-1.01671 0,-0.0847 -0.12664,-0.23283 -0.16933,-0.23283 -0.82621,0.0847 -2.94428,0.29598 -4.10951,0.46602 m -4.25732,-3.36797 c -0.0847,0 -0.16969,-0.10583 -0.16969,-0.16969 v -0.99589 c 0,-0.042 -0.19085,-0.23248 -0.29704,-0.23248 -0.0847,0 -0.23283,0.16933 -0.48683,0.46567 -0.29633,0.36054 -0.95321,0.86854 -1.69439,1.46191 -0.0635,0.0635 -0.12665,0.14817 -0.12665,0.23283 0,0.0639 0.12665,0.16969 0.29598,0.23284 0.42404,0.12735 0.80504,0.27552 0.80504,0.42368 0,0.74154 -0.085,3.91901 -0.085,4.70253 0,0.59337 0.0427,1.03823 0.27587,1.39771 0.254,0.46637 0.99554,0.99589 1.86373,0.99589 0.95356,0 1.6951,-0.381 2.26695,-0.93169 0.14817,-0.14852 0.29598,-0.36018 0.29598,-0.52987 0,-0.1905 -0.10583,-0.23283 -0.12665,-0.23283 -0.0847,0 -0.12735,0.0212 -0.3175,0.12664 -0.31856,0.19086 -0.7627,0.31821 -1.03858,0.31821 -0.44485,0 -0.88935,-0.0423 -1.29187,-0.40252 -0.23283,-0.23283 -0.36018,-0.50835 -0.36018,-1.03787 0,-1.01671 0.0212,-4.13068 0.0427,-4.55436 0,-0.0427 0.0847,-0.14817 0.19015,-0.14817 h 2.30893 c 0.14887,0 0.55033,-0.0423 0.55033,-0.23319 0,-0.27516 -0.0631,-0.86818 -0.0631,-0.80504 0,-0.0631 -0.21167,-0.16898 -0.23284,-0.16898 -0.085,0 -2.13959,0.0847 -2.60526,0.0847 m -9.02335,0.40252 c 0.42368,0 1.22837,0.23283 1.82174,0.8255 0.2533,0.25471 0.44415,0.63606 0.46567,0.80539 0.0635,0.99554 0.0847,2.16077 0.0635,3.51578 -0.0208,0.67804 -0.29633,1.35608 -0.33902,1.39806 -0.381,0.27588 -0.86819,0.50871 -1.54622,0.50871 -1.821749,0 -3.007435,-1.9491 -3.007435,-3.64314 0,-1.18674 0.486833,-2.26659 0.889352,-2.66911 0.381,-0.38136 0.974373,-0.74119 1.652413,-0.74119 m 0.78317,-0.69921 c -0.57186,0 -1.821749,0.21202 -2.795769,0.80469 -1.037872,0.61454 -2.245783,1.82174 -2.245783,3.89749 0,1.05939 0.339019,2.1396 1.017058,2.9023 0.65652,0.6985 1.630892,1.16487 2.64795,1.16487 0.698504,0 1.779054,-0.1905 2.753434,-1.05903 0.0427,0 0.12735,0.0423 0.12735,0.127 0,0.29668 -0.042,0.67803 -0.042,0.86853 0,0.10584 0.14817,0.27552 0.23283,0.27552 0.10548,0 0.27482,-0.0427 0.762,-0.21202 0.40323,-0.14816 1.50425,-0.35983 1.90641,-0.42403 0.10619,-0.0208 0.36054,-0.381 0.36054,-0.52952 0,-0.0208 -0.0427,-0.12665 -0.12735,-0.12665 -0.21167,0.0212 -0.91087,0.16933 -1.14406,0.16933 -0.12665,0 -0.29598,-0.085 -0.3175,-0.86818 -0.0212,-0.40252 -0.0635,-0.55069 -0.0635,-4.82953 0,-6.48194 0.085,-7.24429 0.19015,-8.36754 0.0215,-0.1905 -0.10513,-0.33867 -0.16863,-0.33867 -0.0847,0 -0.14817,0.0215 -0.27552,0.0639 -0.55139,0.21166 -1.67358,0.52952 -2.16076,0.59302 -0.127,0.0208 -0.36054,0.27552 -0.36054,0.35983 0,0.0423 0.0215,0.085 0.21237,0.1905 0.97402,0.50871 0.97402,0.76271 0.99554,0.86854 0.0635,0.5087 0.12665,3.74967 0.0215,4.32117 -0.0215,0.10619 -0.085,0.25436 -0.16969,0.23284 -0.25435,-0.0423 -0.59337,-0.0843 -1.35607,-0.0843 m -10.018188,-5.42254 c 0,0.0843 0.0635,0.14816 0.42298,0.40252 0.487186,0.29633 0.508706,0.42368 0.508706,0.59266 0,0.63571 0.06315,2.85997 0.06315,4.42736 0,3.34681 -0.106186,5.63457 -0.148167,6.43961 -0.06315,1.05904 -0.105833,1.44039 -1.080205,1.65206 -0.232834,0.0423 -0.46602,0.14816 -0.46602,0.29668 0,0.16934 0.169686,0.23284 0.593373,0.23284 0.4445,0 1.376538,-0.0635 1.863725,-0.0635 0.381,0 1.291872,0.0635 1.800577,0.0635 0.254353,0 0.550334,-0.085 0.550334,-0.23284 0,-0.12735 -0.168628,-0.23353 -0.486834,-0.31785 -0.911225,-0.2547 -0.995891,-0.50835 -1.079852,-0.93204 -0.106187,-0.5722 -0.06421,-4.61786 -0.06421,-7.71031 0,-2.83845 0.127706,-5.23205 0.190853,-5.76157 0,-0.0847 -0.126647,-0.25435 -0.190853,-0.21202 -0.571853,0.36019 -1.207206,0.48719 -2.181225,0.82586 -0.232833,0.0642 -0.296333,0.21237 -0.296333,0.29704 m -6.270273,6.05825 c 0.550687,0 1.313392,0.31715 1.779059,0.82585 0.805039,0.93169 1.059039,2.1396 1.059039,3.24062 0,0.91087 -0.423686,2.22462 -0.952853,2.79647 -0.59302,0.59302 -1.059039,0.69885 -1.292225,0.69885 -1.016706,0 -2.223911,-0.7627 -2.753431,-2.35162 -0.169686,-0.52951 -0.254352,-1.18568 -0.254352,-1.88489 0,-1.10137 0.487186,-2.20274 1.037872,-2.71109 0.444853,-0.38136 0.932039,-0.61419 1.376891,-0.61419 m 0.40252,-0.63571 c -1.419225,0 -2.478264,0.59302 -3.135136,1.16523 -0.804686,0.67769 -1.482725,1.69439 -1.482725,3.30412 0,1.05939 0.656872,2.49978 1.567744,3.24097 0.78352,0.65687 1.842559,1.10137 2.816931,1.10137 0.953205,0 1.779411,-0.23284 2.626783,-0.84737 0.78352,-0.508 1.843264,-1.8849 1.843264,-3.64314 0,-2.66876 -2.140303,-4.32118 -4.236861,-4.32118 m -7.921625,4.57553 c 0,0.95321 -0.381353,2.26625 -0.974372,2.83845 -0.487187,0.4445 -1.059392,0.72002 -1.292225,0.72002 -0.381353,0 -1.376892,-0.27552 -1.969912,-0.89006 -0.275519,-0.27481 -0.402519,-0.61383 -0.423686,-1.05904 -0.105833,-1.14335 -0.169333,-2.28741 -0.169333,-3.38878 0,-0.44485 0.02117,-1.03787 0.04233,-1.22872 0.02117,-0.14817 0.105834,-0.27552 0.169334,-0.3175 0.169686,-0.127 0.571852,-0.31786 1.271058,-0.31786 0.995539,0 1.821744,0.42369 2.308931,0.91088 0.720019,0.78351 1.037872,1.96991 1.037872,2.73261 m 1.757892,-0.44485 c 0,-1.20791 -0.444853,-2.3936 -1.398059,-3.19864 -0.677686,-0.59302 -1.630892,-0.93204 -2.62643,-0.93204 -0.698853,0 -1.715912,0.25436 -2.414764,0.72038 -0.02117,0.0212 -0.127,-0.0423 -0.127,-0.0847 -0.04233,-0.23319 -0.04233,-1.27141 -0.04233,-1.82175 0,-1.69474 0.127,-3.70698 0.1905,-5.10504 0,-0.0847 -0.148166,-0.27517 -0.232833,-0.27517 -0.04233,0 -0.254353,0.0847 -0.529519,0.254 -0.423687,0.254 -1.144059,0.4445 -1.737078,0.65687 -0.0635,0.0212 -0.254353,0.27517 -0.254353,0.29634 0,0.10583 0.106186,0.16898 0.423686,0.40216 0.40252,0.33902 0.508353,0.61454 0.52952,0.72002 0.04233,0.29704 0.106186,3.43218 0.106186,5.44442 0,1.73673 -0.02117,5.38022 -0.127353,7.03227 0,0.14852 0.04233,0.27552 0.127353,0.27552 0.04233,0 0.169333,-0.0215 0.254,-0.0635 0.169333,-0.0847 0.360186,-0.10653 0.444852,-0.0635 0.487187,0.16934 1.948745,0.42334 2.690284,0.42334 0.741186,0 2.012244,-0.23284 2.880783,-0.95321 0.931686,-0.72002 1.842559,-1.96991 1.842559,-3.7278 m -24.65564,-3.00778 c 0,0.10583 0.148167,0.21131 0.741187,0.76235 0.190852,0.19085 0.148519,0.46602 0.148519,0.57185 0,1.46156 -0.02117,3.60116 -0.06385,4.21499 -0.08467,0.91087 -0.211666,1.22908 -0.889353,1.39841 -0.381352,0.0843 -0.508352,0.23248 -0.508352,0.31785 0,0.14782 0.211666,0.23284 0.529519,0.23284 0.46602,0 0.889353,-0.0635 1.588558,-0.0635 0.805039,0 1.588559,0.042 1.673225,0.042 0.27552,0 0.572206,-0.0635 0.572206,-0.21132 0,-0.16968 -0.169686,-0.25435 -0.572206,-0.3817 -0.677686,-0.21167 -0.762352,-0.55033 -0.762352,-0.95321 0,-1.60972 0,-4.36315 0.04233,-4.89267 0.02117,-0.25471 0.08467,-0.42369 0.232833,-0.55069 0.508353,-0.38135 0.995539,-0.59337 1.694745,-0.59337 0.762353,0 1.313391,0.27517 1.588558,0.63571 0.148167,0.1905 0.27552,0.46601 0.27552,1.07985 v 4.17301 c 0,0.7627 -0.08467,0.97472 -0.805039,1.14405 -0.33902,0.0847 -0.423686,0.23284 -0.423686,0.29599 0,0.0854 0.0635,0.25435 0.550686,0.25435 0.444853,0 1.059391,-0.042 1.503891,-0.042 0.487187,0 1.122892,0.042 1.588912,0.042 0.338666,0 0.508352,-0.10584 0.508352,-0.25435 0,-0.10549 -0.212019,-0.23284 -0.444852,-0.29599 -0.720373,-0.16933 -0.826206,-0.38135 -0.889706,-1.05903 -0.04233,-0.46638 0,-4.44888 0,-4.59705 0,-0.14817 0.148167,-0.55033 0.211667,-0.61383 0.296686,-0.25471 0.678039,-0.59338 1.631244,-0.59338 0.889706,0 1.355725,0.33867 1.609725,0.76271 0.233186,0.36018 0.33902,0.65687 0.33902,1.39806 0,0.6992 0.04233,2.98626 0.04233,3.49497 0,0.74118 -0.08467,0.99554 -0.762706,1.20755 -0.232833,0.0631 -0.466019,0.14817 -0.466019,0.27517 0,0.14852 0.127353,0.27517 0.529872,0.27517 0.487186,0 0.804686,-0.042 1.440392,-0.042 0.529519,0 1.101372,0.0635 1.525058,0.0635 0.402167,0 0.59302,-0.085 0.59302,-0.23284 0,-0.12735 -0.127,-0.21202 -0.40252,-0.29668 -0.762705,-0.21167 -0.889705,-0.61454 -0.910872,-0.99589 0,-1.73673 0.04233,-3.13479 -0.04233,-4.23616 -0.04233,-0.76235 -0.232834,-1.50389 -0.698853,-2.03341 -0.444853,-0.44521 -1.037872,-0.72037 -1.821745,-0.72037 -0.381352,0 -0.783872,0.085 -1.271058,0.3175 -0.211667,0.085 -1.482725,0.86854 -1.546225,0.89006 -0.105833,0 -0.127,0 -0.169333,-0.0847 -0.08467,-0.12771 -0.33902,-0.50835 -0.720373,-0.80539 -0.381352,-0.27482 -0.889705,-0.42334 -1.652058,-0.42334 -0.995539,0 -2.308931,0.80469 -2.83845,1.2499 -0.08467,0.0635 -0.127,-0.0847 -0.127,-0.127 0,-0.21202 0.08467,-0.82621 0.08467,-1.1229 0,-0.0423 -0.148167,-0.1905 -0.254353,-0.21166 -0.04233,0 -0.08467,0.0212 -0.169333,0.0847 -0.233187,0.16898 -1.186392,0.6985 -1.609725,0.86854 -0.233187,0.127 -0.423687,0.25365 -0.423687,0.38136 m -6.079066,6.62975 c -0.508353,0 -0.889706,0 -1.440392,-0.42369 -0.296686,-0.21166 -0.529519,-0.69885 -0.529519,-1.18639 0,-0.95285 0.08467,-4.95653 0.0635,-5.6769 0,-0.12665 -0.08467,-0.31715 -0.169334,-0.31715 -0.08502,0 -1.652411,0.23248 -2.24543,0.23248 -0.254353,0 -0.360186,0.12736 -0.360186,0.1905 0,0.19086 0.190852,0.29704 0.381352,0.38136 0.360187,0.14816 0.762706,0.23318 0.783873,0.82656 0.04233,1.12253 0.04233,3.51613 0.04233,5.04119 0,0.33902 0.148167,0.76235 0.296333,0.99519 0.423686,0.65722 1.101725,0.99589 1.864078,0.99589 0.59302,0 1.059039,-0.10584 1.419225,-0.254 0.27552,-0.10584 1.122539,-0.65652 1.737078,-1.08056 0.04233,-0.0208 0.105833,0.0427 0.105833,0.14817 -0.02117,0.36053 -0.08467,0.76305 -0.08467,0.89005 0,0.14782 0.127,0.29634 0.211666,0.29634 0.04233,0 0.381353,-0.085 0.741539,-0.1905 0.487186,-0.12736 1.376892,-0.36019 1.927578,-0.40252 0.08467,0 0.232833,-0.14817 0.232833,-0.21202 -0.02117,-0.0631 -0.169333,-0.40217 -0.254,-0.40217 -0.254353,0 -0.910872,0.10584 -1.059391,0.10584 -0.169334,0 -0.254,-0.254 -0.254,-0.29634 0,-1.73708 0.169333,-6.4396 0.211666,-7.03298 0,-0.0843 -0.04233,-0.3175 -0.148166,-0.3175 -0.148167,0 -0.296687,0.0208 -0.508353,0.085 -0.487186,0.12665 -1.419225,0.23248 -2.266597,0.23248 -0.211667,0 -0.487187,0.10619 -0.487187,0.1905 0,0.17004 0.27552,0.29704 0.423687,0.33938 0.190852,0.042 0.656872,0.16933 0.974372,0.25435 0.127,0.0423 0.360186,0.33867 0.360186,0.46602 l -0.04233,4.87186 c 0,0.0847 -0.190853,0.40217 -0.317853,0.50835 -0.52952,0.46567 -1.101372,0.74119 -1.609725,0.74119 m -17.0307,-6.96877 c -0.02117,-0.36054 0,-3.15631 0.06385,-3.85516 0.0635,-0.88971 0.127,-1.20791 1.122539,-1.39841 0.444853,-0.0843 0.614186,-0.19015 0.614186,-0.40217 0,-0.12735 -0.232833,-0.23318 -0.677686,-0.23318 -0.487186,0 -1.122891,0.0427 -2.012244,0.0427 -0.551039,0 -1.334558,-0.0427 -1.927578,-0.0427 -0.339019,0 -0.614539,0.085 -0.614539,0.23318 0,0.16934 0.14852,0.31786 0.593372,0.40217 0.889353,0.1905 1.016706,0.48754 1.059039,1.20756 0.04233,0.93204 0,2.88078 0,3.26213 0,3.45229 -0.127352,5.84588 -0.190852,6.71442 -0.08467,0.82656 -0.254,1.03823 -1.334206,1.31375 -0.233186,0.0635 -0.487186,0.1905 -0.487186,0.40252 0,0.127 0.169333,0.21131 0.635353,0.21131 0.720019,0 1.609725,-0.0843 2.096911,-0.0843 0.762705,0 2.054578,0.0843 2.203097,0.0843 0.275167,0 0.635353,-0.0423 0.614186,-0.21131 -0.02117,-0.21202 -0.169333,-0.29669 -0.635353,-0.42404 -0.889705,-0.27517 -1.122891,-0.65652 -1.144058,-1.65206 0,-0.61419 -0.04233,-3.32564 0,-3.87632 0,-0.16934 0.169686,-0.35984 0.233186,-0.35984 0.423686,-0.0423 4.596342,0.0212 7.879645,0.0212 0.169333,0 0.254352,0.0631 0.254352,0.4445 0,1.05904 -0.04233,2.52095 -0.08502,3.4103 -0.0635,1.50425 -0.169333,1.73708 -1.313039,2.0761 -0.233186,0.0635 -0.466019,0.1905 -0.466019,0.38135 0,0.19015 0.211666,0.23248 0.529519,0.23248 0.423686,0 2.012244,-0.12664 2.478264,-0.12664 0.656519,0 1.419225,0.0635 1.758244,0.0635 0.40252,0 0.59302,-0.0635 0.59302,-0.23284 0,-0.14852 -0.1905,-0.29668 -0.487186,-0.40252 -0.953206,-0.27551 -1.165225,-0.36053 -1.207559,-1.18639 0,-0.3175 -0.08467,-2.20309 -0.08467,-3.13478 0,-3.60116 0.0635,-5.90973 0.169686,-6.99065 0.04233,-0.61383 0.211666,-0.99518 1.101372,-1.20685 0.444853,-0.10583 0.614186,-0.25435 0.614186,-0.36018 0,-0.16934 -0.254,-0.25436 -0.593019,-0.25436 -0.233186,0 -1.207559,0.0639 -1.927578,0.0639 -0.52952,0 -1.885245,-0.0423 -2.160764,-0.0423 -0.4445,0 -0.656519,0.0847 -0.656519,0.23284 0,0.1905 0.233186,0.3175 0.529519,0.40252 0.953206,0.25364 1.101372,0.42368 1.165225,1.2072 0.0635,0.82585 0.0635,3.60116 0.04233,3.87632 -0.04233,0.42369 -0.106186,0.55069 -0.233186,0.55069 -3.749322,0 -6.630105,0.0639 -7.879644,0.0639 -0.148167,0 -0.21202,-0.0215 -0.233186,-0.42368"
         style="fill:#ffffff;fill-opacity:1;fill-rule:nonzero;stroke:none;stroke-width:0.352778"
         id="path909"
         inkscape:connector-curvature="0" />
      <path
         d="M 26.991342,122.92188 H 177.8303"
         style="fill:none;stroke:#ff0000;stroke-width:0.466725;stroke-linecap:butt;stroke-linejoin:miter;stroke-miterlimit:4;stroke-dasharray:none;stroke-opacity:1"
         id="path913"
         inkscape:connector-curvature="0" />
    </g>
    <g
       id="g925"
       transform="matrix(2.2609089,0,0,2.2609089,77.583444,-203.23291)">
      <path
         d="m 15.775654,123.16201 c 1.187097,0 2.149828,-0.96273 2.149828,-2.14983 0,-1.1871 -0.962731,-2.14983 -2.149828,-2.14983 -1.187097,0 -2.149828,0.96273 -2.149828,2.14983 0,1.1871 0.962731,2.14983 2.149828,2.14983"
         style="fill:#ff0000;fill-opacity:1;fill-rule:nonzero;stroke:none;stroke-width:0.352778"
         id="path917"
         inkscape:connector-curvature="0" />
      <path
         d="M 21.701898,106.42849 H -6.0740607 v 27.77596 H 21.701898 Z"
         style="fill:none;stroke:#ffffff;stroke-width:0.310092;stroke-linecap:butt;stroke-linejoin:miter;stroke-miterlimit:4;stroke-dasharray:none;stroke-opacity:1"
         id="path919"
         inkscape:connector-curvature="0" />
      <path
         d="m 1.1963719,120.32325 v 4.91137 c 0,0.12665 0.097367,0.25436 0.1943806,0.23848 1.2146139,-0.34043 2.4422805,-0.91087 3.8205833,-1.17898 1.908175,-0.37148 4.2474445,0.74012 4.5522445,1.82668 0.3047997,1.08726 0.097014,3.51437 0.2106083,5.24686 0.016228,0.30798 0.2106084,0.62689 0.5023554,0.78882 0.485422,0.29139 1.042106,0.17074 1.359606,0.23283 0.301625,0.0586 0.345722,0.51682 -0.0882,0.51682 H 4.5967969 c -0.1248833,0 -0.3393722,-0.031 -0.3393722,-0.2286 0,-0.19791 0.1319389,-0.23107 0.2751667,-0.27305 0.1449916,-0.0427 1.2061472,-0.20885 1.3871222,-0.72602 0.065969,-0.18909 0.1157111,-0.6417 0.1157111,-1.2199 v -3.41454 c 0,-1.23049 -1.2181417,-1.60831 -2.2027445,-1.60831 -0.83185,0 -1.6651111,0.27375 -2.3607889,0.68509 0,0 -0.2289527,0.14993 -0.2289527,0.40499 v 4.49792 c 0,0.109 -0.026811,0.65475 0.1291166,0.89711 0.2899834,0.4505 1.3680723,0.4893 1.4689667,0.51541 0.2049639,0.0522 0.2871611,0.31679 0.023636,0.43744 -0.1164166,0.0533 -0.7249583,0.0325 -1.4739055,0.0325 H -3.548842 -4.3856309 c -0.396875,0.0159 -0.466725,-0.10337 -0.466725,-0.23566 0,-0.17639 0.1481667,-0.31432 0.3965222,-0.31432 0.6247695,0 1.73355,-0.0769 1.73355,-1.07492 v -9.16022 c 0,-0.52635 -0.4205111,-0.63536 -0.8149167,-0.69603 -0.3725333,-0.0572 -1.0653888,-0.16052 -1.0653888,-0.30057 0,-0.1397 0.1665111,-0.17957 0.3577166,-0.21837 0.1912056,-0.0392 1.7466028,-0.22296 2.6013834,-0.40922 0.75353331,-0.16334 1.49613054,-0.35737 2.22461665,-0.56233 0.35313056,-0.0977 0.61524445,-0.0413 0.61524445,0.38876 z"
         style="fill:none;stroke:#ffffff;stroke-width:0.310092;stroke-linecap:butt;stroke-linejoin:miter;stroke-miterlimit:4;stroke-dasharray:none;stroke-opacity:1"
         id="path923"
         inkscape:connector-curvature="0" />
      <path
         d="m 20.398313,132.45136 c -0.338314,-0.22543 -1.940278,-0.0332 -2.011186,-0.80116 -0.01411,-0.15381 -3.53e-4,-0.33161 -3.53e-4,-0.46037 v -6.09177 c 0,-0.17992 3.53e-4,-0.53869 3.53e-4,-0.68333 0,-0.36724 -0.250825,-0.37641 -0.347839,-0.37641 -0.573617,0 -0.860072,0.42791 -1.555044,0.76164 -1.335617,0.64065 -3.229681,0.94509 -3.553178,1.05551 -0.257881,0.0875 -0.309739,0.2727 -0.144286,0.387 0.394405,0.27446 1.138766,-0.0342 1.624541,0.40323 0,0 0.204611,0.12065 0.204611,0.51752 v 4.21111 c 0,0.27975 -0.04516,0.55527 -0.431094,0.77787 -0.386292,0.2219 -1.497894,0.0512 -1.655939,0.42863 -0.07161,0.1718 0.07726,0.32949 0.438503,0.32949 h 6.844594 c 0.16757,0 0.45967,-0.007 0.586317,-0.0677 0.107597,-0.0508 0.198261,-0.25894 0,-0.39123 z"
         style="fill:none;stroke:#ffffff;stroke-width:0.310092;stroke-linecap:butt;stroke-linejoin:miter;stroke-miterlimit:4;stroke-dasharray:none;stroke-opacity:1"
         id="path927"
         inkscape:connector-curvature="0" />
    </g>
  </g>
</svg>
